<?xml version="1.0" encoding="UTF-8" standalone="no"?>
<!-- Created with Inkscape (http://www.inkscape.org/) -->

<svg
   width="210mm"
   height="297mm"
   viewBox="0 0 210 297"
   version="1.1"
   id="svg5"
   inkscape:version="1.1 (c68e22c387, 2021-05-23)"
   sodipodi:docname="org-tamu.svg"
   xmlns:inkscape="http://www.inkscape.org/namespaces/inkscape"
   xmlns:sodipodi="http://sodipodi.sourceforge.net/DTD/sodipodi-0.dtd"
   xmlns="http://www.w3.org/2000/svg"
   xmlns:svg="http://www.w3.org/2000/svg">
  <sodipodi:namedview
     id="namedview7"
     pagecolor="#ffffff"
     bordercolor="#666666"
     borderopacity="1.0"
     inkscape:pageshadow="2"
     inkscape:pageopacity="0.0"
     inkscape:pagecheckerboard="0"
     inkscape:document-units="mm"
     showgrid="false"
     inkscape:zoom="0.71446409"
     inkscape:cx="396.80091"
     inkscape:cy="-79.080252"
     inkscape:window-width="1920"
     inkscape:window-height="991"
     inkscape:window-x="-9"
     inkscape:window-y="-9"
     inkscape:window-maximized="1"
     inkscape:current-layer="layer1" />
  <defs
     id="defs2">
    <style
       id="style824">.cls-1{fill:#500000;}.cls-2{fill:#fff;}.cls-3{fill:#b1b3b6;}</style>
  </defs>
  <g
     inkscape:label="Layer 1"
     inkscape:groupmode="layer"
     id="layer1">
    <rect
       class="cls-1"
       x="12.664561"
       y="0.038838942"
       width="23.100769"
       height="23.283333"
       id="rect830"
       style="stroke-width:0.264583" />
    <polygon
       class="cls-2"
       points="119.27,71.41 119.1,71.08 118.73,71.08 112.46,71.08 111.87,71.08 111.87,71.67 111.87,75.01 111.87,75.61 112.46,75.61 113.53,75.61 113.53,89.63 112.37,89.63 111.78,89.63 111.78,90.22 111.78,93.56 111.78,94.16 112.37,94.16 119.41,94.16 120.01,94.16 120.01,93.56 120.01,90.22 120.01,89.63 119.41,89.63 118.19,89.63 118.19,79.68 123.45,90.52 123.99,91.62 124.53,90.52 129.84,79.65 129.84,89.63 128.68,89.63 128.08,89.63 128.08,90.22 128.08,93.56 128.08,94.16 128.68,94.16 135.71,94.16 136.31,94.16 136.31,93.56 136.31,90.22 136.31,89.63 135.71,89.63 134.5,89.63 134.5,75.61 135.71,75.61 136.31,75.61 136.31,75.01 136.31,71.67 136.31,71.08 135.71,71.08 129.23,71.08 128.85,71.08 128.69,71.42 123.98,81.21 "
       id="polygon832"
       transform="matrix(0.26458333,0,0,0.26458333,-3.2104387,-9.5020363)" />
    <path
       class="cls-2"
       d="m 21.88529,14.207276 h -0.489479 l -1.61925,-3.725333 h 0.312208 V 9.2833801 h -2.59027 v 1.2012079 h 0.357187 l -1.611312,3.722688 h -0.669396 v 1.198562 h 2.3495 v -1.198562 h -0.343959 l 0.264584,-0.619125 h 1.93675 l 0.264583,0.619125 h -0.354542 v 1.198562 h 2.3495 v -1.198562 z m -2.606146,-1.817688 h -0.899583 l 0.449792,-1.039812 z"
       id="path834"
       style="stroke-width:0.264583" />
    <polygon
       class="cls-2"
       points="78.2,68.04 78.88,68.04 87.41,68.04 88.09,68.04 88.09,67.35 88.09,62.45 98.63,62.45 98.63,97.22 93.73,97.22 93.05,97.22 93.05,97.9 93.05,106.43 93.05,107.11 93.73,107.11 113.42,107.11 114.1,107.11 114.1,106.43 114.1,97.9 114.1,97.22 113.42,97.22 108.52,97.22 108.52,62.45 118.99,62.45 118.99,67.29 118.99,67.97 119.68,67.97 128.26,67.97 128.95,67.97 128.95,67.29 128.95,54.16 128.95,53.48 128.26,53.48 78.88,53.48 78.2,53.48 78.2,54.16 78.2,67.35 "
       id="polygon836"
       transform="matrix(0.26458333,0,0,0.26458333,-3.2104387,-9.5020363)" />
    <polygon
       class="cls-3"
       points="112.07,99.13 112.07,105.02 109.98,103.02 109.98,101.28 "
       id="polygon838"
       transform="matrix(0.26458333,0,0,0.26458333,-3.2104387,-9.5020363)" />
    <polygon
       class="cls-3"
       points="104.42,101.34 104.42,58.35 106.51,60.44 106.51,99.28 "
       id="polygon840"
       transform="matrix(0.26458333,0,0,0.26458333,-3.2104387,-9.5020363)" />
    <polygon
       class="cls-3"
       points="80.23,55.51 125.87,55.51 123.17,57.6 82.38,57.6 "
       id="polygon842"
       transform="matrix(0.26458333,0,0,0.26458333,-3.2104387,-9.5020363)" />
    <polygon
       class="cls-3"
       points="124.89,64.07 124.89,58.76 126.98,56.62 126.98,66.06 "
       id="polygon844"
       transform="matrix(0.26458333,0,0,0.26458333,-3.2104387,-9.5020363)" />
    <rect
       class="cls-1"
       x="47.401703"
       y="34.122463"
       width="0.0026458332"
       id="rect846"
       height="0"
       style="stroke-width:0.264583" />
    <path
       class="cls-1"
       d="m 1.0546446,28.727609 v 1.531938 h 0.3783541 a 1.4261041,1.4261041 0 0 1 0.1931459,-0.74348 0.67997916,0.67997916 0 0 1 0.3915833,-0.293687 2.4024166,2.4024166 0 0 1 0.5609167,-0.05292 h 0.5609166 v 3.952875 a 0.68791666,0.68791666 0 0 1 -0.142875,0.494771 0.97102082,0.97102082 0 0 1 -0.6402916,0.142875 v 0.365125 h 2.7146249 v -0.367771 a 1.4155208,1.4155208 0 0 1 -0.5132916,-0.07144 0.365125,0.365125 0 0 1 -0.22225,-0.201084 1.0980208,1.0980208 0 0 1 -0.047625,-0.365125 v -3.950229 h 0.6852708 a 1.651,1.651 0 0 1 0.4497917,0.05556 0.70114582,0.70114582 0 0 1 0.3624791,0.296333 1.5875,1.5875 0 0 1 0.2196042,0.740833 h 0.3783541 v -1.531937 z"
       id="path848"
       style="stroke-width:0.264583" />
    <path
       class="cls-1"
       d="m 10.939478,33.25463 a 1.016,1.016 0 0 1 -0.486834,0.357187 1.9314583,1.9314583 0 0 1 -0.5291662,0.06879 H 9.4895611 A 1.7250833,1.7250833 0 0 1 9.0424153,33.638276 0.396875,0.396875 0 0 1 8.8148736,33.498046 0.49741666,0.49741666 0 0 1 8.7275611,33.25463 Q 8.7116861,33.109109 8.7116861,32.788963 V 31.50838 h 0.555625 a 1.3467291,1.3467291 0 0 1 0.4206875,0.04763 0.33602083,0.33602083 0 0 1 0.2010834,0.187854 1.285875,1.285875 0 0 1 0.079375,0.439208 h 0.365125 v -1.79388 H 9.9605195 a 1.524,1.524 0 0 1 -0.076729,0.436563 0.31485416,0.31485416 0 0 1 -0.1957917,0.1905 1.3361458,1.3361458 0 0 1 -0.4206875,0.05027 H 8.7196236 V 29.15888 H 9.730332 a 2.9897916,2.9897916 0 0 1 0.60325,0.04498 0.65616666,0.65616666 0 0 1 0.362479,0.246063 1.8520833,1.8520833 0 0 1 0.28575,0.66675 h 0.359833 l -0.07144,-1.399646 H 6.7987487 v 0.365125 a 1.42875,1.42875 0 0 1 0.5291666,0.07408 0.365125,0.365125 0 0 1 0.2143125,0.203729 1.1324167,1.1324167 0 0 1 0.044979,0.359834 v 3.389312 A 0.68791666,0.68791666 0 0 1 7.444332,33.60388 0.96572915,0.96572915 0 0 1 6.8040403,33.746755 v 0.365125 h 4.8021877 l 0.04498,-1.772708 h -0.378354 a 1.87325,1.87325 0 0 1 -0.333375,0.915458 z"
       id="path850"
       style="stroke-width:0.264583" />
    <path
       class="cls-1"
       d="m 21.266165,33.712359 a 1.8044583,1.8044583 0 0 1 -0.470958,0.04498 v 0.367771 h 2.54 v -0.367771 a 0.83608332,0.83608332 0 0 1 -0.41275,-0.08467 0.60854166,0.60854166 0 0 1 -0.230188,-0.243416 c -0.05556,-0.105834 -0.142875,-0.306917 -0.264583,-0.60325 l -1.640417,-4.198938 h -0.378354 l -1.553104,4.071938 a 4.4635208,4.4635208 0 0 1 -0.304271,0.661458 0.86518749,0.86518749 0 0 1 -0.296333,0.3175 0.66410416,0.66410416 0 0 1 -0.182563,0.0635 1.1006667,1.1006667 0 0 1 -0.264583,-0.07144 1.1641667,1.1641667 0 0 1 -0.381,-0.283105 7.2548749,7.2548749 0 0 1 -0.484187,-0.59002 l -1.322917,-1.719792 0.963083,-1.105958 c 0.209021,-0.243417 0.370417,-0.415396 0.478896,-0.529167 a 1.3229166,1.3229166 0 0 1 0.383646,-0.264583 1.2488333,1.2488333 0 0 1 0.529167,-0.0979 v -0.34925 h -2.230438 v 0.365125 h 0.185208 a 0.82814582,0.82814582 0 0 1 0.373063,0.05821 0.20108333,0.20108333 0 0 1 0.0979,0.187854 0.31220833,0.31220833 0 0 1 -0.0344,0.153459 c -0.02381,0.03969 -0.07408,0.111125 -0.150813,0.211666 l -0.854604,1.008063 -0.751416,-0.971021 a 1.2567708,1.2567708 0 0 1 -0.243417,-0.431271 0.1666875,0.1666875 0 0 1 0.113771,-0.179916 1.2885208,1.2885208 0 0 1 0.338666,-0.0344 h 0.206375 V 28.73289 h -2.942166 v 0.365125 a 1.5875,1.5875 0 0 1 0.494771,0.06085 0.76199999,0.76199999 0 0 1 0.306916,0.195792 c 0.08731,0.0926 0.230188,0.264583 0.425979,0.529166 l 1.299105,1.711854 -0.957792,1.12448 a 7.0273332,7.0273332 0 0 1 -0.656167,0.690562 1.3943541,1.3943541 0 0 1 -0.452437,0.28575 1.5583958,1.5583958 0 0 1 -0.460375,0.07408 v 0.365125 h 2.38125 V 33.75732 a 3.175,3.175 0 0 1 -0.373063,-0.01587 0.46302083,0.46302083 0 0 1 -0.235479,-0.08996 0.26458333,0.26458333 0 0 1 -0.0979,-0.219604 0.94985415,0.94985415 0 0 1 0.293688,-0.513292 l 0.838729,-0.978958 0.873125,1.150937 a 0.93927082,0.93927082 0 0 1 0.209021,0.373063 0.22754166,0.22754166 0 0 1 -0.164042,0.24077 1.2144375,1.2144375 0 0 1 -0.373062,0.05292 H 15.18339 v 0.367771 h 4.550834 v -0.367771 a 1.3229166,1.3229166 0 0 1 -0.431271,-0.0635 0.28310416,0.28310416 0 0 1 -0.182563,-0.301625 1.4049375,1.4049375 0 0 1 0.111125,-0.425979 l 0.129646,-0.34925 h 1.748896 l 0.264583,0.637646 a 0.67204166,0.67204166 0 0 1 0.04763,0.243416 0.20108333,0.20108333 0 0 1 -0.156104,0.214313 z m -1.748896,-1.486958 0.709084,-1.878542 0.743479,1.878542 z"
       id="path852"
       style="stroke-width:0.264583" />
    <path
       class="cls-1"
       d="m 26.989103,33.561546 a 1.8229791,1.8229791 0 0 0 0.3175,-0.529166 1.4340416,1.4340416 0 0 0 0.105833,-0.529167 1.2461875,1.2461875 0 0 0 -0.22225,-0.746125 2.0081875,2.0081875 0 0 0 -0.558271,-0.510646 10.31875,10.31875 0 0 0 -0.912812,-0.478895 c -0.322792,-0.148167 -0.555625,-0.264584 -0.6985,-0.343959 a 1.143,1.143 0 0 1 -0.34925,-0.288396 0.62706249,0.62706249 0 0 1 -0.132292,-0.396875 0.59795833,0.59795833 0 0 1 0.211667,-0.47625 0.82549999,0.82549999 0 0 1 0.560916,-0.185208 q 0.963084,0 1.354667,1.201208 h 0.365125 v -1.473729 h -0.365125 a 2.397125,2.397125 0 0 1 -0.127,0.463021 1.7965208,1.7965208 0 0 0 -0.582083,-0.455083 1.5583958,1.5583958 0 0 0 -0.703792,-0.166688 1.6298333,1.6298333 0 0 0 -0.851958,0.219604 1.5054791,1.5054791 0 0 0 -0.558271,0.566209 1.4234583,1.4234583 0 0 0 -0.1905,0.6985 1.2964583,1.2964583 0 0 0 0.06085,0.394229 1.3943541,1.3943541 0 0 0 0.216958,0.410104 2.19075,2.19075 0 0 0 0.465667,0.447146 4.6302083,4.6302083 0 0 0 0.79375,0.455083 c 0.209021,0.0926 0.394229,0.182563 0.555625,0.264584 a 2.3151041,2.3151041 0 0 1 0.383646,0.238125 0.80697916,0.80697916 0 0 1 0.214312,0.251354 0.75141666,0.75141666 0 0 1 -0.166687,0.87577 0.90752082,0.90752082 0 0 1 -0.637646,0.216959 1.1985625,1.1985625 0 0 1 -0.767292,-0.246063 1.7224375,1.7224375 0 0 1 -0.484187,-0.590021 3.4395833,3.4395833 0 0 1 -0.264584,-0.730249 h -0.357187 v 1.804458 h 0.357187 a 2.0769791,2.0769791 0 0 1 0.15875,-0.529167 1.8362083,1.8362083 0 0 0 0.703792,0.545042 2.0584583,2.0584583 0 0 0 0.833438,0.182562 1.6933333,1.6933333 0 0 0 0.74877,-0.15875 1.6113125,1.6113125 0 0 0 0.52123,-0.399521 z"
       id="path854"
       style="stroke-width:0.264583" />
    <path
       class="cls-1"
       d="m 35.003332,33.429255 c -0.05556,-0.105834 -0.142875,-0.306917 -0.264584,-0.60325 l -1.643062,-4.201583 h -0.375708 l -1.55575,4.071937 a 4.4449999,4.4449999 0 0 1 -0.304271,0.658812 0.86783332,0.86783332 0 0 1 -0.296334,0.3175 0.79374999,0.79374999 0 0 1 -0.378354,0.08202 v 0.367771 h 1.852084 v -0.365125 a 1.3229166,1.3229166 0 0 1 -0.431271,-0.0635 0.28310416,0.28310416 0 0 1 -0.185209,-0.301625 1.4022916,1.4022916 0 0 1 0.111125,-0.425979 l 0.132292,-0.34925 h 1.748896 l 0.264583,0.637646 a 0.67468749,0.67468749 0 0 1 0.04763,0.243416 0.20372916,0.20372916 0 0 1 -0.148166,0.216959 1.8176875,1.8176875 0 0 1 -0.470959,0.04498 v 0.367771 h 2.54 v -0.370417 a 0.83343749,0.83343749 0 0 1 -0.415396,-0.08467 0.60589583,0.60589583 0 0 1 -0.227541,-0.243416 z m -3.175,-1.2065 0.706437,-1.878542 0.743479,1.878542 z"
       id="path856"
       style="stroke-width:0.264583" />
    <path
       class="cls-1"
       d="m 45.425269,33.484817 a 0.35983333,0.35983333 0 0 1 -0.211667,0.203729 1.381125,1.381125 0 0 1 -0.513291,0.06879 v 0.367771 h 2.701395 v -0.367771 a 1.397,1.397 0 0 1 -0.529166,-0.07144 0.36777083,0.36777083 0 0 1 -0.219604,-0.209021 1.0874375,1.0874375 0 0 1 -0.04762,-0.354542 v -3.389312 a 0.68791666,0.68791666 0 0 1 0.145521,-0.492125 0.96837499,0.96837499 0 0 1 0.642937,-0.145521 V 28.73025 h -1.920875 l -1.793875,3.807354 -1.791229,-3.807354 h -1.971146 v 0.365125 a 1.3573125,1.3573125 0 0 1 0.542396,0.07673 0.33072916,0.33072916 0 0 1 0.195792,0.230188 2.38125,2.38125 0 0 1 0.03704,0.492125 v 3.055937 a 3.4792708,3.4792708 0 0 1 -0.01588,0.386292 0.46302083,0.46302083 0 0 1 -0.08731,0.230187 0.42862499,0.42862499 0 0 1 -0.227542,0.142875 1.5875,1.5875 0 0 1 -0.441854,0.04762 v 0.365125 h 1.992312 v -0.365125 a 1.730375,1.730375 0 0 1 -0.441854,-0.04498 0.43920833,0.43920833 0 0 1 -0.232833,-0.142875 0.46566666,0.46566666 0 0 1 -0.08996,-0.230188 3.0691666,3.0691666 0 0 1 -0.01852,-0.388937 v -3.212042 l 2.06375,4.384146 h 0.243416 l 2.037292,-4.384146 v 3.381375 a 1.0583333,1.0583333 0 0 1 -0.04762,0.365125 z"
       id="path858"
       style="stroke-width:0.264583" />
    <path
       class="cls-1"
       d="m 3.3829779,35.990421 a 0.79374999,0.79374999 0 0 1 0.1878541,0.01852 0.174625,0.174625 0 0 1 0.097896,0.05821 0.206375,0.206375 0 0 1 0.037042,0.0926 1.4313958,1.4313958 0 0 1 0,0.161396 v 0.79375 a 2.5532291,2.5532291 0 0 1 -0.013229,0.264583 0.81491666,0.81491666 0 0 1 -0.060854,0.216958 0.47095833,0.47095833 0 0 1 -0.206375,0.219604 0.64029166,0.64029166 0 0 1 -0.3201458,0.08467 0.57414583,0.57414583 0 0 1 -0.2936875,-0.07938 0.44185416,0.44185416 0 0 1 -0.1905,-0.211667 0.83079166,0.83079166 0 0 1 -0.042333,-0.187854 1.93675,1.93675 0 0 1 -0.013229,-0.248708 v -0.926042 a 0.42068749,0.42068749 0 0 1 0.021167,-0.150812 0.15345833,0.15345833 0 0 1 0.092604,-0.08202 0.59795833,0.59795833 0 0 1 0.2143125,-0.0291 v -0.150812 h -1.119189 v 0.150813 a 0.39158333,0.39158333 0 0 1 0.2645834,0.06085 0.2936875,0.2936875 0 0 1 0.055563,0.203729 v 0.926042 c 0,0.07937 0,0.142875 0,0.1905 a 0.76199999,0.76199999 0 0 0 0.026458,0.156104 0.84931249,0.84931249 0 0 0 0.060854,0.164042 0.59002083,0.59002083 0 0 0 0.2116666,0.24077 0.94720832,0.94720832 0 0 0 0.2989792,0.132292 1.2779375,1.2779375 0 0 0 0.3148542,0.04233 1.2065,1.2065 0 0 0 0.4312708,-0.08467 0.65616666,0.65616666 0 0 0 0.34925,-0.309563 0.62706249,0.62706249 0 0 0 0.082021,-0.230187 2.9262916,2.9262916 0 0 0 0.015875,-0.341313 v -0.820208 a 0.98424999,0.98424999 0 0 1 0.015875,-0.195792 0.14552083,0.14552083 0 0 1 0.079375,-0.0979 0.47889583,0.47889583 0 0 1 0.2143125,-0.0344 V 35.836963 H 3.3750404 Z"
       id="path860"
       style="stroke-width:0.264583" />
    <path
       class="cls-1"
       d="m 8.6137903,35.842255 v 0.150812 a 0.48683333,0.48683333 0 0 1 0.2169583,0.03704 0.16139583,0.16139583 0 0 1 0.084667,0.103187 0.85460416,0.85460416 0 0 1 0.015875,0.1905 v 1.005417 L 7.6639362,35.834317 H 7.0183528 v 0.150813 a 0.47624999,0.47624999 0 0 1 0.174625,0.04498 0.20372916,0.20372916 0 0 1 0.089958,0.08467 0.333375,0.333375 0 0 1 0.034396,0.119062 c 0,0.04498 0,0.116417 0,0.206375 V 37.5938 a 0.95514582,0.95514582 0 0 1 -0.015875,0.20373 0.1508125,0.1508125 0 0 1 -0.082021,0.0979 0.50270833,0.50270833 0 0 1 -0.2143125,0.0344 v 0.150813 H 7.8332691 V 37.92983 a 0.56356249,0.56356249 0 0 1 -0.2275417,-0.0344 0.14816666,0.14816666 0 0 1 -0.087313,-0.0979 0.86254166,0.86254166 0 0 1 -0.015875,-0.20373 v -1.22502 l 1.4552083,1.730375 H 9.1085611 V 36.33438 a 0.91810416,0.91810416 0 0 1 0.015875,-0.203729 0.14816666,0.14816666 0 0 1 0.084667,-0.09525 0.56885416,0.56885416 0 0 1 0.2275417,-0.03175 v -0.148167 z"
       id="path862"
       style="stroke-width:0.264583" />
    <path
       class="cls-1"
       d="m 12.249165,35.993067 a 0.40745833,0.40745833 0 0 1 0.264584,0.06085 0.26458333,0.26458333 0 0 1 0.06085,0.20373 v 1.397 a 0.43391666,0.43391666 0 0 1 -0.02117,0.153458 0.14816666,0.14816666 0 0 1 -0.09525,0.07937 0.61912499,0.61912499 0 0 1 -0.211667,0.0291 v 0.150813 h 1.132417 v -0.150813 a 0.56356249,0.56356249 0 0 1 -0.216958,-0.03175 0.14816666,0.14816666 0 0 1 -0.08996,-0.08202 0.40745833,0.40745833 0 0 1 -0.02117,-0.150812 v -1.397 a 0.42862499,0.42862499 0 0 1 0.02117,-0.156104 0.15345833,0.15345833 0 0 1 0.09525,-0.07937 0.62441666,0.62441666 0 0 1 0.214313,-0.02911 v -0.150812 h -1.132417 z"
       id="path864"
       style="stroke-width:0.264583" />
    <path
       class="cls-1"
       d="m 17.815999,35.993067 a 0.79374999,0.79374999 0 0 1 0.22225,0.0291 c 0.04763,0.01852 0.07408,0.06085 0.07408,0.132292 a 0.65087499,0.65087499 0 0 1 -0.06085,0.198438 l -0.473604,1.108604 -0.510646,-1.190625 a 0.37835416,0.37835416 0 0 1 -0.03969,-0.15875 0.09260417,0.09260417 0 0 1 0.06085,-0.100542 1.1297708,1.1297708 0 0 1 0.22225,-0.02646 v -0.150813 h -1.12977 v 0.150813 a 0.56091666,0.56091666 0 0 1 0.195791,0.02646 0.20902083,0.20902083 0 0 1 0.105834,0.08731 1.984375,1.984375 0 0 1 0.108479,0.227541 l 0.759354,1.775354 h 0.153458 l 0.717021,-1.685395 c 0.04498,-0.103188 0.07937,-0.179917 0.105833,-0.227542 a 0.56885416,0.56885416 0 0 1 0.07673,-0.113771 0.22225,0.22225 0 0 1 0.09525,-0.06085 0.46302083,0.46302083 0 0 1 0.134937,-0.02117 v -0.148166 h -0.817562 z"
       id="path866"
       style="stroke-width:0.264583" />
    <path
       class="cls-1"
       d="m 23.163228,37.707567 a 0.41010416,0.41010416 0 0 1 -0.201084,0.145521 0.72495832,0.72495832 0 0 1 -0.214312,0.0291 h -0.179917 a 0.77787499,0.77787499 0 0 1 -0.185208,-0.01588 0.174625,0.174625 0 0 1 -0.0926,-0.06085 0.21960416,0.21960416 0 0 1 -0.03704,-0.100542 c 0,-0.04233 0,-0.105833 0,-0.193145 v -0.529167 h 0.227542 a 0.52916666,0.52916666 0 0 1 0.174625,0.02117 0.12964583,0.12964583 0 0 1 0.08202,0.07673 0.52916666,0.52916666 0 0 1 0.0344,0.182562 h 0.150813 v -0.727604 h -0.156104 a 0.65087499,0.65087499 0 0 1 -0.03175,0.179917 0.12964583,0.12964583 0 0 1 -0.08202,0.07673 0.56091666,0.56091666 0 0 1 -0.174625,0.02117 h -0.224896 v -0.79375 h 0.418042 a 1.143,1.143 0 0 1 0.248708,0.02117 0.2778125,0.2778125 0 0 1 0.150812,0.100542 0.73554166,0.73554166 0 0 1 0.116417,0.264583 h 0.150813 l -0.02646,-0.576791 h -1.852083 v 0.150812 a 0.59531249,0.59531249 0 0 1 0.216958,0.0291 0.14816666,0.14816666 0 0 1 0.08996,0.08467 0.49477083,0.49477083 0 0 1 0.01852,0.148167 v 1.397 a 0.29633333,0.29633333 0 0 1 -0.05821,0.206375 0.41010416,0.41010416 0 0 1 -0.264583,0.05821 v 0.150812 h 1.981729 l 0.01852,-0.73025 h -0.150813 a 0.79374999,0.79374999 0 0 1 -0.148166,0.383646 z"
       id="path868"
       style="stroke-width:0.264583" />
    <path
       class="cls-1"
       d="m 28.608353,37.879546 a 0.43920833,0.43920833 0 0 1 -0.124355,-0.111125 2.4315208,2.4315208 0 0 1 -0.169333,-0.24077 C 28.195603,37.342442 28.10829,37.212796 28.050082,37.144005 a 0.74083332,0.74083332 0 0 0 -0.203729,-0.174625 0.82814582,0.82814582 0 0 0 0.280458,-0.129646 0.48683333,0.48683333 0 0 0 0.156104,-0.187854 0.50006249,0.50006249 0 0 0 0.04763,-0.214313 0.52916666,0.52916666 0 0 0 -0.06879,-0.264583 0.59266666,0.59266666 0 0 0 -0.179916,-0.1905 0.77258332,0.77258332 0 0 0 -0.235479,-0.103188 1.4525625,1.4525625 0 0 0 -0.227542,-0.03969 c -0.09525,0 -0.198438,-0.01588 -0.309563,-0.02117 h -0.309562 -0.134938 l -0.513291,0.01588 v 0.156104 a 0.39158333,0.39158333 0 0 1 0.264583,0.06086 0.2936875,0.2936875 0 0 1 0.05556,0.203729 V 37.6573 a 0.28045833,0.28045833 0 0 1 -0.05821,0.20373 0.39422916,0.39422916 0 0 1 -0.264583,0.06085 v 0.150812 H 27.46271 V 37.92188 a 0.55827083,0.55827083 0 0 1 -0.211667,-0.03175 0.14022916,0.14022916 0 0 1 -0.0926,-0.08467 0.42068749,0.42068749 0 0 1 -0.02117,-0.148167 V 37.06463 h 0.07937 a 1.0239375,1.0239375 0 0 1 0.224896,0.01588 0.23283333,0.23283333 0 0 1 0.119063,0.07937 2.0293541,2.0293541 0 0 1 0.153458,0.230187 l 0.150812,0.248709 0.0926,0.153458 c 0.03969,0.06085 0.07408,0.116417 0.105833,0.161396 a 0.81756249,0.81756249 0 0 0 0.08202,0.105833 h 0.592666 v -0.148167 a 0.46302083,0.46302083 0 0 1 -0.129645,-0.03175 z m -0.947209,-1.0795 a 0.96837499,0.96837499 0 0 1 -0.418041,0.08202 h -0.103188 v -0.875771 h 0.103188 a 0.88899999,0.88899999 0 0 1 0.423333,0.08731 0.365125,0.365125 0 0 1 0.164042,0.351896 c 0,0.185208 -0.05556,0.312208 -0.169334,0.354541 z"
       id="path870"
       style="stroke-width:0.264583" />
    <path
       class="cls-1"
       d="m 32.889311,36.900588 a 4.0587083,4.0587083 0 0 0 -0.383646,-0.201083 c -0.134937,-0.0635 -0.232833,-0.111125 -0.293687,-0.145521 a 0.50270833,0.50270833 0 0 1 -0.145521,-0.121708 0.26458333,0.26458333 0 0 1 -0.05556,-0.169334 0.26458333,0.26458333 0 0 1 0.08996,-0.201083 0.34925,0.34925 0 0 1 0.238125,-0.07937 q 0.407458,0 0.568854,0.508 h 0.153458 v -0.619125 h -0.153458 a 0.94191665,0.94191665 0 0 1 -0.05292,0.193146 0.75406249,0.75406249 0 0 0 -0.243417,-0.1905 0.66145832,0.66145832 0 0 0 -0.296333,-0.06879 0.68527082,0.68527082 0 0 0 -0.357187,0.0926 0.64822916,0.64822916 0 0 0 -0.23548,0.238125 0.59002083,0.59002083 0 0 0 -0.07938,0.293688 0.55827083,0.55827083 0 0 0 0.02381,0.164041 0.65616666,0.65616666 0 0 0 0.0926,0.17198 0.91281249,0.91281249 0 0 0 0.195792,0.187854 1.9076458,1.9076458 0 0 0 0.330729,0.1905 l 0.232833,0.111125 a 1.2012083,1.2012083 0 0 1 0.161396,0.100541 0.34925,0.34925 0 0 1 0.08996,0.105834 0.28575,0.28575 0 0 1 0.02911,0.137583 0.29633333,0.29633333 0 0 1 -0.103188,0.230188 0.381,0.381 0 0 1 -0.264583,0.08996 0.50270833,0.50270833 0 0 1 -0.322792,-0.103188 0.70908332,0.70908332 0 0 1 -0.203729,-0.248708 1.5134166,1.5134166 0 0 1 -0.113771,-0.306917 h -0.150812 v 0.762 h 0.150812 a 0.95779165,0.95779165 0 0 1 0.06615,-0.224895 0.79374999,0.79374999 0 0 0 0.296333,0.230187 0.87312499,0.87312499 0 0 0 0.351896,0.07673 0.72231249,0.72231249 0 0 0 0.314854,-0.06615 0.67468749,0.67468749 0 0 0 0.216959,-0.179916 0.77258332,0.77258332 0 0 0 0.132291,-0.22225 0.63235416,0.63235416 0 0 0 0.04498,-0.219604 0.52916666,0.52916666 0 0 0 -0.09525,-0.312209 0.85195832,0.85195832 0 0 0 -0.230187,-0.203729 z"
       id="path872"
       style="stroke-width:0.264583" />
    <path
       class="cls-1"
       d="m 36.117227,35.993067 a 0.41010416,0.41010416 0 0 1 0.264584,0.06085 0.28045833,0.28045833 0 0 1 0.06085,0.20373 v 1.397 a 0.42333333,0.42333333 0 0 1 -0.02117,0.153458 0.1508125,0.1508125 0 0 1 -0.09525,0.07937 0.62177083,0.62177083 0 0 1 -0.214312,0.0291 v 0.150813 H 37.2417 v -0.150813 a 0.56356249,0.56356249 0 0 1 -0.216959,-0.03175 0.15345833,0.15345833 0 0 1 -0.08996,-0.08202 0.42597916,0.42597916 0 0 1 -0.02117,-0.150812 v -1.397 a 0.46566666,0.46566666 0 0 1 0.02117,-0.156104 0.15345833,0.15345833 0 0 1 0.09525,-0.07937 0.61912499,0.61912499 0 0 1 0.211667,-0.02911 v -0.150812 h -1.129771 z"
       id="path874"
       style="stroke-width:0.264583" />
    <path
       class="cls-1"
       d="m 40.091269,36.471963 h 0.156104 a 0.57679166,0.57679166 0 0 1 0.07937,-0.306917 0.28839583,0.28839583 0 0 1 0.161396,-0.121708 1.0212917,1.0212917 0 0 1 0.230188,-0.02117 h 0.235479 v 1.627188 a 0.2778125,0.2778125 0 0 1 -0.05821,0.203729 0.39158333,0.39158333 0 0 1 -0.264583,0.06085 v 0.150813 h 1.113896 v -0.150813 a 0.55297916,0.55297916 0 0 1 -0.211667,-0.03175 0.14816666,0.14816666 0 0 1 -0.0926,-0.08202 0.46037499,0.46037499 0 0 1 -0.01852,-0.150812 v -1.627188 h 0.283104 a 0.64558333,0.64558333 0 0 1 0.182563,0.02381 0.28575,0.28575 0 0 1 0.150812,0.121708 0.64822916,0.64822916 0 0 1 0.08996,0.304271 h 0.169333 v -0.629708 h -2.198687 z"
       id="path876"
       style="stroke-width:0.264583" />
    <path
       class="cls-1"
       d="m 46.600019,36.006296 a 0.52916666,0.52916666 0 0 1 0.187854,0.02646 c 0.04498,0.01852 0.06879,0.06085 0.06879,0.129646 A 0.56620833,0.56620833 0 0 1 46.75083,36.41111 l -0.33073,0.529167 -0.346604,-0.58473 a 1.7515416,1.7515416 0 0 1 -0.08996,-0.166687 0.17727083,0.17727083 0 0 1 -0.01852,-0.07408 0.07672917,0.07672917 0 0 1 0.0291,-0.06879 0.16139583,0.16139583 0 0 1 0.07408,-0.02646 H 46.19255 V 35.868717 H 45.147446 V 36.0063 a 0.33866666,0.33866666 0 0 1 0.166687,0.03969 0.48683333,0.48683333 0 0 1 0.129646,0.153458 v 0.01588 l 0.01588,0.02117 0.558271,0.931333 v 0.497417 a 0.42597916,0.42597916 0 0 1 -0.02117,0.153458 0.1508125,0.1508125 0 0 1 -0.0926,0.08202 0.61912499,0.61912499 0 0 1 -0.211667,0.0291 v 0.150813 h 1.119188 v -0.150813 a 0.50006249,0.50006249 0 0 1 -0.216959,-0.0344 0.14552083,0.14552083 0 0 1 -0.08731,-0.08467 0.41539583,0.41539583 0 0 1 -0.02117,-0.145521 v -0.529167 l 0.468313,-0.722312 c 0.07673,-0.119063 0.137583,-0.203729 0.17727,-0.264584 a 0.40745833,0.40745833 0 0 1 0.119063,-0.11377 0.38364583,0.38364583 0 0 1 0.150812,-0.04233 v 0 -0.148166 h -0.809624 z"
       id="path878"
       style="stroke-width:0.264583" />
    <path
       class="cls-1"
       d="m 39.937811,32.855109 0.02381,-0.08467 h -0.309562 l -0.01852,0.0291 a 0.45243749,0.45243749 0 0 1 -0.388938,0.24077 0.60589583,0.60589583 0 0 1 -0.341312,-0.108479 2.2807083,2.2807083 0 0 1 -0.449792,-0.513291 3.1961666,3.1961666 0 0 0 0.264584,-0.529167 1.7885833,1.7885833 0 0 1 0.357187,-0.611188 0.91810416,0.91810416 0 0 1 0.391583,-0.214312 h 0.02381 0.05027 v -0.34925 h -1.516063 v 0.333375 h 0.06085 0.02911 c 0.343958,0.03969 0.388937,0.185208 0.388937,0.306917 a 1.1509375,1.1509375 0 0 1 -0.09525,0.373062 2.1166666,2.1166666 0 0 1 -0.1905,0.357188 L 37.34489,30.876018 c 0.552979,-0.298979 0.836083,-0.616479 0.836083,-0.947209 a 0.66939582,0.66939582 0 0 0 -0.309562,-0.574145 1.1324167,1.1324167 0 0 0 -0.656167,-0.206375 0.93133332,0.93133332 0 0 0 -0.690562,0.280458 0.89693749,0.89693749 0 0 0 -0.264584,0.637646 1.6324791,1.6324791 0 0 0 0.325438,0.875771 3.6486041,3.6486041 0 0 0 -0.746125,0.627062 1.1033125,1.1033125 0 0 0 -0.232833,0.709083 1.1641667,1.1641667 0 0 0 0.185208,0.650875 1.30175,1.30175 0 0 0 1.082146,0.584729 1.5875,1.5875 0 0 0 1.135062,-0.55827 1.36525,1.36525 0 0 0 1.058334,0.55827 0.88899999,0.88899999 0 0 0 0.545041,-0.174625 0.80962499,0.80962499 0 0 0 0.312209,-0.46302 z m -2.788709,-2.25425 a 1.3520208,1.3520208 0 0 1 -0.296333,-0.674687 0.42333333,0.42333333 0 0 1 0.105833,-0.296334 0.40216666,0.40216666 0 0 1 0.566209,0 0.48418749,0.48418749 0 0 1 0.111125,0.333375 c 0,0.22225 -0.164042,0.431271 -0.486834,0.637646 z m -0.354541,0.658813 c 0.280458,0.375708 0.616479,0.854604 0.997479,1.434041 a 0.91281249,0.91281249 0 0 1 -0.656167,0.333375 0.81491666,0.81491666 0 0 1 -0.611187,-0.301625 0.95514582,0.95514582 0 0 1 -0.264584,-0.645583 0.79374999,0.79374999 0 0 1 0.15875,-0.449792 1.397,1.397 0 0 1 0.378355,-0.370416 z"
       id="path880"
       style="stroke-width:0.264583" />
    <path
       class="cls-1"
       d="m 49.245852,37.577921 v 0 a 0.14816666,0.14816666 0 0 0 0.116417,-0.14552 0.14552083,0.14552083 0 0 0 -0.05292,-0.124355 0.32014583,0.32014583 0 0 0 -0.185208,-0.04498 1.1721042,1.1721042 0 0 0 -0.169333,0.01323 v 0.582084 h 0.09525 v -0.264584 h 0.06614 a 0.111125,0.111125 0 0 1 0.127,0.103188 0.43391666,0.43391666 0 0 0 0.03969,0.150812 H 49.38343 A 0.47624999,0.47624999 0 0 1 49.34374,37.69963 c -0.01058,-0.0635 -0.04762,-0.105834 -0.0979,-0.121709 z m -0.127,-0.03704 h -0.06879 v -0.211667 h 0.06879 c 0.108479,0 0.145521,0.05027 0.145521,0.103188 0,0.05292 -0.06879,0.108479 -0.148167,0.108479 z"
       id="path882"
       style="stroke-width:0.264583" />
    <path
       class="cls-1"
       d="m 49.150602,37.027588 v 0 a 0.52916666,0.52916666 0 1 0 0.529167,0.529167 0.52916666,0.52916666 0 0 0 -0.531813,-0.529167 z m 0,0.98425 a 0.45243749,0.45243749 0 0 1 0,-0.902229 v 0 a 0.45243749,0.45243749 0 0 1 0,0.902229 z"
       id="path884"
       style="stroke-width:0.264583" />
  </g>
</svg>
