<?xml version="1.0" encoding="utf-8"?>
<!-- Generator: Adobe Illustrator 19.0.0, SVG Export Plug-In . SVG Version: 6.00 Build 0)  -->
<svg version="1.1" id="layer" xmlns="http://www.w3.org/2000/svg" xmlns:xlink="http://www.w3.org/1999/xlink" x="0px" y="0px"
	 viewBox="-153 -46 652 652" style="enable-background:new -153 -46 652 652;" xml:space="preserve">
<path d="M316.1,216.4H21v-59h295.1V216.4z M293.4,221L21,334.4l22.7,54.5l272.4-113.4L293.4,221z M316.1,393.5H21v59h295.1V393.5z"
	/>
<path d="M21,475.6h29.8v6.7l-20,22.6v0.1h20v6.4H21v-6.7l20-22.6V482H21V475.6z M70.7,502.3h-0.1l-9-26.7h-8.6l13.1,36.1
	c-1.1,4.7-3.1,5.2-6.5,5.2h-2.4c0,0,0,0,0,0v6.5h4.5c6.8,0,8.7-1.5,11.6-8.3l15-39.4h-8.3L70.7,502.3z M131.4,474.8
	c-5.4,0-8.9,2.4-11.5,6.5c-1.8-4.2-5.6-6.5-10.6-6.5c-4.2,0-7.4,1.7-9.9,5.1h-0.1v-4.3h-7.7v35.8h8v-19.2c0-6.9,2.7-11,7.5-11
	c4.2,0,6.4,3,6.4,8v22.2h8v-19.3c0-6.8,2.8-10.9,7.5-10.9c4,0,6.5,2.5,6.5,8.9v21.3h8v-22.1C143.7,479.7,139,474.8,131.4,474.8
	 M303,474.8c-4.7,0-8.5,2.3-10.7,5.5h-0.1v-4.7h-7.6v35.8h8v-19.9c0-6.8,3.6-10.3,8.2-10.3c4.5,0,7.3,2.5,7.3,9v21.2h8v-21.9
	C316.1,479.7,311.2,474.8,303,474.8 M207.1,475.5c-0.9-0.2-2-0.4-3-0.4c-4.4,0-7.8,1.9-10.2,5.8h-0.1v-5.3h-7.5v35.8h8v-17.6
	c0-7.5,3.5-11.6,9.9-11.6c0.9,0,1.8,0.1,2.8,0.3V475.5 M223.7,474.6c4.4,0,7.8,1.9,10.4,6h0.1v-5h7.6v33.6
	c0,10.7-6.2,15.9-16.3,15.9c-7.3,0-12.1-2.5-14.2-6.6l7.2-3c0.9,2.4,3.4,3.7,7.1,3.7c5.4,0,8.3-2.7,8.3-10.2v-3.5h-0.1
	c-2.6,3.8-5.9,5.6-10.4,5.6c-9.1,0-14.9-7-14.9-18.2C208.7,481.8,214.5,474.6,223.7,474.6 M225.5,481.3c-5.1,0-8.5,4.4-8.5,11.5
	c0,7,3.3,11.6,8.5,11.6c5.4,0,8.8-4.5,8.8-11.6C234.4,485.8,231,481.3,225.5,481.3 M181.5,501.7c-1.9,6.6-7.8,10.4-16.4,10.4
	c-10.8,0-17.7-7.7-17.7-19.1c0-10.5,6.8-18.2,17.5-18.2c8.1,0,14.5,5,16.4,12.4c0.7,2.2,1,4.5,1,9h-27c0.1,6.6,4.5,10.1,9.8,10.1
	c4.2,0,7-1.2,8.2-4.6H181.5z M164.9,481.4c-5.1,0-8.8,3.7-9.5,9.2h18.9C173.8,485.1,170,481.4,164.9,481.4 M280,501.7
	c-1.9,6.6-7.8,10.4-16.4,10.4c-10.8,0-17.7-7.7-17.7-19.1c0-10.5,6.8-18.2,17.5-18.2c8.1,0,14.5,5,16.4,12.4c0.7,2.2,1,4.5,1,9h-27
	c0.1,6.6,4.5,10.1,9.8,10.1c4.2,0,7-1.2,8.2-4.6H280z M263.4,481.4c-5.1,0-8.8,3.7-9.5,9.2h18.9
	C272.3,485.1,268.5,481.4,263.4,481.4"/>
<path d="M31.4,37.1h-60.1v-12h60.1V37.1z M26.8,38l-55.5,23.1l4.6,11.1l55.5-23.1L26.8,38z M31.4,73.1h-60.1v12h60.1V73.1z"/>
<path d="M67.5,37.1h30v6.7L77.3,66.6v0.1h20.2v6.5h-30v-6.7l20.2-22.7v-0.1H67.5V37.1z M117.5,63.9h-0.1l-9-26.9h-8.7l13.2,36.4
	c-1.1,4.8-3.2,5.2-6.5,5.2h-2.4c0,0,0,0,0,0v6.5h4.6c6.9,0,8.7-1.5,11.6-8.4l15.1-39.7h-8.4L117.5,63.9z M178.7,36.2
	c-5.5,0-9,2.4-11.6,6.5c-1.9-4.3-5.7-6.5-10.7-6.5c-4.3,0-7.5,1.7-10,5.2h-0.1v-4.3h-7.7v36.1h8.1V53.8c0-7,2.8-11.1,7.6-11.1
	c4.2,0,6.5,3,6.5,8.1v22.3h8.1V53.7c0-6.9,2.8-10.9,7.6-10.9c4,0,6.5,2.6,6.5,9v21.5h8.1V50.9C191,41.2,186.3,36.2,178.7,36.2
	 M351.6,36.2c-4.8,0-8.5,2.3-10.8,5.5h-0.1v-4.7h-7.7v36.1h8.1v-20c0-6.9,3.6-10.4,8.2-10.4c4.6,0,7.3,2.6,7.3,9v21.4h8.1V51.1
	C364.7,41.2,359.7,36.2,351.6,36.2 M254.9,37c-0.9-0.2-2.1-0.4-3-0.4c-4.5,0-7.9,1.9-10.3,5.8h-0.1v-5.3h-7.5v36.1h8.1V55.5
	c0-7.5,3.5-11.6,10-11.6c0.9,0,1.8,0.1,2.8,0.3V37 M271.7,36.1c4.5,0,7.8,1.9,10.5,6h0.1v-5h7.7v33.8c0,10.8-6.3,16-16.4,16
	c-7.3,0-12.2-2.5-14.3-6.7l7.2-3.1c0.9,2.4,3.4,3.8,7.2,3.8c5.4,0,8.4-2.8,8.4-10.3V67H282c-2.6,3.8-6,5.7-10.4,5.7
	c-9.2,0-15-7.1-15-18.3C256.5,43.3,262.4,36.1,271.7,36.1 M273.5,42.8c-5.2,0-8.5,4.5-8.5,11.6c0,7.1,3.3,11.7,8.5,11.7
	c5.5,0,8.9-4.6,8.9-11.7C282.4,47.4,279,42.8,273.5,42.8 M229.3,63.8c-1.9,5.6-7.9,10.5-16.7,10.5c-11,0-18-7.9-18-19.6
	c0-10.7,6.9-18.7,17.8-18.7c8.2,0,14.7,4.7,16.7,12.3c0.7,2.3,1,4.9,1,8.4h-27.5c0.1,8.3,4.6,11.6,10,11.6c4.3,0,7.1-1.8,8.3-4.5
	H229.3z M212.4,42c-5.2,0-9,3.2-9.7,9.5H222C221.5,44.9,217.6,42,212.4,42 M328.4,63.8c-1.9,5.6-7.9,10.5-16.7,10.5
	c-11,0-18-7.9-18-19.6c0-10.7,6.9-18.7,17.8-18.7c8.2,0,14.7,4.7,16.7,12.3c0.7,2.3,1,4.9,1,8.4h-27.5c0.1,8.3,4.6,11.6,10,11.6
	c4.3,0,7.1-1.8,8.3-4.5H328.4z M311.5,42c-5.2,0-9,3.2-9.7,9.5h19.3C320.6,44.9,316.7,42,311.5,42"/>
</svg>
