<?xml version="1.0" encoding="UTF-8" standalone="no"?>
<!-- Created with Inkscape (http://www.inkscape.org/) -->

<svg
   width="210mm"
   height="297mm"
   viewBox="0 0 210 297"
   version="1.1"
   id="svg5"
   inkscape:version="1.1 (c68e22c387, 2021-05-23)"
   sodipodi:docname="org-tamu.svg"
   xmlns:inkscape="http://www.inkscape.org/namespaces/inkscape"
   xmlns:sodipodi="http://sodipodi.sourceforge.net/DTD/sodipodi-0.dtd"
   xmlns="http://www.w3.org/2000/svg"
   xmlns:svg="http://www.w3.org/2000/svg">
  <sodipodi:namedview
     id="namedview7"
     pagecolor="#ffffff"
     bordercolor="#666666"
     borderopacity="1.0"
     inkscape:pageshadow="2"
     inkscape:pageopacity="0.0"
     inkscape:pagecheckerboard="0"
     inkscape:document-units="mm"
     showgrid="false"
     inkscape:zoom="0.71446409"
     inkscape:cx="735.51632"
     inkscape:cy="374.4065"
     inkscape:window-width="1920"
     inkscape:window-height="991"
     inkscape:window-x="-9"
     inkscape:window-y="-9"
     inkscape:window-maximized="1"
     inkscape:current-layer="layer1" />
  <defs
     id="defs2">
    <style
       id="style824">.cls-1{fill:#500000;}.cls-2{fill:#fff;}.cls-3{fill:#b1b3b6;}</style>
  </defs>
  <g
     inkscape:label="Layer 1"
     inkscape:groupmode="layer"
     id="layer1">
    <rect
       class="cls-1"
       x="47.401703"
       y="34.122463"
       width="0.0026458332"
       id="rect846"
       height="0"
       style="stroke-width:0.264583" />
    <g
       id="g964"
       transform="translate(1.1109726,57.029925)">
      <rect
         class="cls-1"
         x="50.243057"
         y="0.038838942"
         width="97.872375"
         height="98.645859"
         id="rect830"
         style="stroke-width:1.12097" />
      <polygon
         class="cls-2"
         points="118.73,71.08 112.46,71.08 111.87,71.08 111.87,71.67 111.87,75.01 111.87,75.61 112.46,75.61 113.53,75.61 113.53,89.63 112.37,89.63 111.78,89.63 111.78,90.22 111.78,93.56 111.78,94.16 112.37,94.16 119.41,94.16 120.01,94.16 120.01,93.56 120.01,90.22 120.01,89.63 119.41,89.63 118.19,89.63 118.19,79.68 123.45,90.52 123.99,91.62 124.53,90.52 129.84,79.65 129.84,89.63 128.68,89.63 128.08,89.63 128.08,90.22 128.08,93.56 128.08,94.16 128.68,94.16 135.71,94.16 136.31,94.16 136.31,93.56 136.31,90.22 136.31,89.63 135.71,89.63 134.5,89.63 134.5,75.61 135.71,75.61 136.31,75.61 136.31,75.01 136.31,71.67 136.31,71.08 135.71,71.08 129.23,71.08 128.85,71.08 128.69,71.42 123.98,81.21 119.27,71.41 119.1,71.08 "
         id="polygon832"
         transform="matrix(1.1209756,0,0,1.1209756,-17.015483,-40.383544)" />
      <path
         class="cls-2"
         d="M 89.309056,60.067084 H 87.235252 L 80.374881,44.283748 h 1.32275 V 39.205726 H 70.723283 v 5.089228 h 1.513315 l -6.82674,15.77213 h -2.836069 v 5.078017 h 9.954264 v -5.078017 h -1.457271 l 1.120978,-2.623083 h 8.205542 l 1.120974,2.623083 h -1.502109 v 5.078017 h 9.954264 V 60.067084 Z M 78.267445,52.365979 H 74.45613 l 1.90566,-4.405433 z"
         id="path834"
         style="stroke-width:1.12097" />
      <polygon
         class="cls-2"
         points="87.41,68.04 88.09,68.04 88.09,67.35 88.09,62.45 98.63,62.45 98.63,97.22 93.73,97.22 93.05,97.22 93.05,97.9 93.05,106.43 93.05,107.11 93.73,107.11 113.42,107.11 114.1,107.11 114.1,106.43 114.1,97.9 114.1,97.22 113.42,97.22 108.52,97.22 108.52,62.45 118.99,62.45 118.99,67.29 118.99,67.97 119.68,67.97 128.26,67.97 128.95,67.97 128.95,67.29 128.95,54.16 128.95,53.48 128.26,53.48 78.88,53.48 78.2,53.48 78.2,54.16 78.2,67.35 78.2,68.04 78.88,68.04 "
         id="polygon836"
         transform="matrix(1.1209756,0,0,1.1209756,-17.015483,-40.383544)" />
      <polygon
         class="cls-3"
         points="109.98,103.02 109.98,101.28 112.07,99.13 112.07,105.02 "
         id="polygon838"
         transform="matrix(1.1209756,0,0,1.1209756,-17.015483,-40.383544)" />
      <polygon
         class="cls-3"
         points="106.51,60.44 106.51,99.28 104.42,101.34 104.42,58.35 "
         id="polygon840"
         transform="matrix(1.1209756,0,0,1.1209756,-17.015483,-40.383544)" />
      <polygon
         class="cls-3"
         points="123.17,57.6 82.38,57.6 80.23,55.51 125.87,55.51 "
         id="polygon842"
         transform="matrix(1.1209756,0,0,1.1209756,-17.015483,-40.383544)" />
      <polygon
         class="cls-3"
         points="126.98,56.62 126.98,66.06 124.89,64.07 124.89,58.76 "
         id="polygon844"
         transform="matrix(1.1209756,0,0,1.1209756,-17.015483,-40.383544)" />
      <path
         class="cls-1"
         d="m 1.0546446,121.58623 v 6.49045 h 1.6029949 a 6.0420585,6.0420585 0 0 1 0.8183125,-3.14995 2.8809074,2.8809074 0 0 1 1.6590439,-1.24428 10.178459,10.178459 0 0 1 2.3764685,-0.22421 h 2.3764681 v 16.74738 a 2.9145367,2.9145367 0 0 1 -0.6053269,2.09622 4.1139806,4.1139806 0 0 1 -2.7127608,0.60533 v 1.54695 H 18.071055 v -1.55816 a 5.9972196,5.9972196 0 0 1 -2.174693,-0.30267 1.5469464,1.5469464 0 0 1 -0.941619,-0.85195 4.6520488,4.6520488 0 0 1 -0.201776,-1.54694 v -16.73617 h 2.903327 a 6.9948881,6.9948881 0 0 1 1.905659,0.23539 2.9705854,2.9705854 0 0 1 1.535736,1.2555 6.7258539,6.7258539 0 0 1 0.93041,3.13873 h 1.602995 v -6.49045 z"
         id="path848"
         style="stroke-width:1.12097" />
      <path
         class="cls-1"
         d="m 42.934295,140.76612 a 4.3045465,4.3045465 0 0 1 -2.062598,1.51332 8.1831222,8.1831222 0 0 1 -2.241949,0.29144 h -1.8384 a 7.3087611,7.3087611 0 0 1 -1.894449,-0.17934 1.6814635,1.6814635 0 0 1 -0.964039,-0.59412 2.1074342,2.1074342 0 0 1 -0.369922,-1.0313 q -0.06726,-0.61654 -0.06726,-1.97292 v -5.42552 h 2.354049 a 5.7057658,5.7057658 0 0 1 1.782352,0.2018 1.4236391,1.4236391 0 0 1 0.851941,0.79589 5.4479417,5.4479417 0 0 1 0.336293,1.86082 h 1.546947 v -7.60024 h -1.580576 a 6.4568198,6.4568198 0 0 1 -0.325082,1.84961 1.333961,1.333961 0 0 1 -0.829523,0.80711 5.6609269,5.6609269 0 0 1 -1.782351,0.21298 h -2.32042 v -8.08223 h 4.282127 a 12.667025,12.667025 0 0 1 2.555825,0.19057 2.7800196,2.7800196 0 0 1 1.535735,1.04251 7.8468295,7.8468295 0 0 1 1.210654,2.82485 h 1.524526 l -0.302674,-5.92996 H 25.391026 v 1.54695 a 6.0532686,6.0532686 0 0 1 2.241951,0.31386 1.5469464,1.5469464 0 0 1 0.90799,0.86315 4.797776,4.797776 0 0 1 0.190565,1.52453 v 14.35969 a 2.9145367,2.9145367 0 0 1 -0.605326,2.09624 4.0915611,4.0915611 0 0 1 -2.712761,0.60533 v 1.54694 h 20.345709 l 0.19057,-7.51053 h -1.602995 a 7.9365077,7.9365077 0 0 1 -1.412429,3.87857 z"
         id="path850"
         style="stroke-width:1.12097" />
      <path
         class="cls-1"
         d="m 86.685973,142.70541 a 7.6450538,7.6450538 0 0 1 -1.995335,0.19057 v 1.55815 h 10.761366 v -1.55815 a 3.542283,3.542283 0 0 1 -1.748722,-0.35873 2.578244,2.578244 0 0 1 -0.975251,-1.03129 c -0.235394,-0.4484 -0.605326,-1.30034 -1.120974,-2.55583 l -6.95005,-17.78988 h -1.602995 l -6.580126,17.25181 a 18.910859,18.910859 0 0 1 -1.289123,2.80244 3.6655904,3.6655904 0 0 1 -1.255491,1.34517 2.8136489,2.8136489 0 0 1 -0.773476,0.26904 4.6632589,4.6632589 0 0 1 -1.120974,-0.30268 4.932293,4.932293 0 0 1 -1.614205,-1.19945 30.737152,30.737152 0 0 1 -2.051383,-2.49977 l -5.60488,-7.28634 4.08035,-4.68568 c 0.885572,-1.0313 1.569367,-1.75993 2.028967,-2.24195 a 5.604878,5.604878 0 0 1 1.625415,-1.12097 5.291005,5.291005 0 0 1 2.241953,-0.41478 v -1.47969 h -9.449827 v 1.54695 h 0.784682 a 3.5086538,3.5086538 0 0 1 1.580577,0.24662 0.85194149,0.85194149 0 0 1 0.414779,0.79589 1.3227513,1.3227513 0 0 1 -0.145744,0.65017 c -0.100878,0.16815 -0.31386,0.47081 -0.638959,0.89678 l -3.62075,4.27091 -3.183568,-4.11398 a 5.3246342,5.3246342 0 0 1 -1.031299,-1.82719 0.70621466,0.70621466 0 0 1 0.48202,-0.76226 5.4591513,5.4591513 0 0 1 1.434846,-0.14574 h 0.874361 V 121.6086 H 47.77691 v 1.54695 a 6.7258539,6.7258539 0 0 1 2.096226,0.2578 3.2284099,3.2284099 0 0 1 1.300328,0.82953 c 0.369912,0.39232 0.975251,1.12097 1.804771,2.24195 l 5.503994,7.25271 -4.057934,4.76415 a 29.773113,29.773113 0 0 1 -2.780021,2.92574 5.9075414,5.9075414 0 0 1 -1.916866,1.21066 6.6025465,6.6025465 0 0 1 -1.950498,0.31385 v 1.54695 h 10.088781 v -1.60299 a 13.451708,13.451708 0 0 1 -1.580578,-0.0672 1.9617074,1.9617074 0 0 1 -0.997667,-0.38114 1.1209756,1.1209756 0 0 1 -0.414779,-0.93041 4.0243025,4.0243025 0 0 1 1.244285,-2.17469 l 3.553492,-4.14761 3.69922,4.87624 a 3.9794635,3.9794635 0 0 1 0.885572,1.58058 0.96403904,0.96403904 0 0 1 -0.695007,1.02008 5.1452783,5.1452783 0 0 1 -1.580573,0.22421 h -1.064931 v 1.55816 h 19.280784 v -1.55816 a 5.604878,5.604878 0 0 1 -1.827191,-0.26903 1.1994439,1.1994439 0 0 1 -0.773475,-1.27791 5.9523807,5.9523807 0 0 1 0.47081,-1.80477 l 0.549279,-1.47969 h 7.409649 l 1.120975,2.70155 a 2.8472781,2.8472781 0 0 1 0.201796,1.03129 0.85194149,0.85194149 0 0 1 -0.661374,0.908 z m -7.40965,-6.29988 3.004218,-7.95893 3.149941,7.95893 z"
         id="path852"
         style="stroke-width:1.12097" />
      <path
         class="cls-1"
         d="m 110.93268,142.06645 a 7.723522,7.723522 0 0 0 1.34517,-2.24195 6.0756878,6.0756878 0 0 0 0.44839,-2.24195 5.2797953,5.2797953 0 0 0 -0.94162,-3.16115 8.5082052,8.5082052 0 0 0 -2.36526,-2.16349 43.718051,43.718051 0 0 0 -3.86736,-2.02896 c -1.3676,-0.62775 -2.35405,-1.12098 -2.95938,-1.45727 a 4.8426148,4.8426148 0 0 1 -1.47969,-1.22186 2.6567123,2.6567123 0 0 1 -0.56049,-1.68147 2.533405,2.533405 0 0 1 0.89678,-2.01775 3.497444,3.497444 0 0 1 2.37647,-0.78469 q 4.08035,0 5.7394,5.08923 h 1.54694 v -6.24383 h -1.54694 a 10.156039,10.156039 0 0 1 -0.53807,1.96171 7.6114246,7.6114246 0 0 0 -2.46615,-1.92808 6.6025465,6.6025465 0 0 0 -2.98179,-0.70622 6.9052099,6.9052099 0 0 0 -3.609543,0.93041 6.3783512,6.3783512 0 0 0 -2.365259,2.39889 6.0308489,6.0308489 0 0 0 -0.807103,2.95938 5.4927806,5.4927806 0 0 0 0.257807,1.67025 5.9075414,5.9075414 0 0 0 0.919199,1.73751 9.2816784,9.2816784 0 0 0 1.972918,1.89445 19.617074,19.617074 0 0 0 3.362931,1.92808 c 0.88557,0.39232 1.67025,0.77347 2.35404,1.12098 a 9.8085367,9.8085367 0 0 1 1.62542,1.00888 3.4189757,3.4189757 0 0 1 0.90799,1.06492 3.1835708,3.1835708 0 0 1 -0.70621,3.71043 3.8449465,3.8449465 0 0 1 -2.70156,0.9192 5.0780197,5.0780197 0 0 1 -3.25083,-1.04251 7.2975515,7.2975515 0 0 1 -2.05138,-2.49977 14.572683,14.572683 0 0 1 -1.120979,-3.09389 h -1.513315 v 7.64505 h 1.513315 a 8.7996586,8.7996586 0 0 1 0.672586,-2.24195 7.7795709,7.7795709 0 0 0 2.981793,2.30921 8.7211905,8.7211905 0 0 0 3.53108,0.77347 7.1742441,7.1742441 0 0 0 3.17236,-0.67259 6.8267418,6.8267418 0 0 0 2.20832,-1.69267 z"
         id="path854"
         style="stroke-width:1.12097" />
      <path
         class="cls-1"
         d="m 144.88703,141.50596 c -0.23539,-0.44839 -0.60533,-1.30033 -1.12098,-2.55582 l -6.96125,-17.80109 h -1.59179 l -6.59134,17.25181 a 18.832391,18.832391 0 0 1 -1.28912,2.79123 3.6768001,3.6768001 0 0 1 -1.25549,1.34517 3.3629269,3.3629269 0 0 1 -1.603,0.3475 v 1.55815 h 7.84683 v -1.54694 a 5.604878,5.604878 0 0 1 -1.82719,-0.26904 1.1994439,1.1994439 0 0 1 -0.78468,-1.27791 5.9411707,5.9411707 0 0 1 0.47081,-1.80477 l 0.56049,-1.47969 h 7.40965 l 1.12097,2.70156 a 2.8584879,2.8584879 0 0 1 0.2018,1.03129 0.86315123,0.86315123 0 0 1 -0.62775,0.9192 7.7011028,7.7011028 0 0 1 -1.99534,0.19057 v 1.55816 h 10.76137 v -1.56937 a 3.5310733,3.5310733 0 0 1 -1.75993,-0.35872 2.5670342,2.5670342 0 0 1 -0.96404,-1.0313 z m -13.45171,-5.11164 2.99301,-7.95893 3.14994,7.95893 z"
         id="path856"
         style="stroke-width:1.12097" />
      <path
         class="cls-1"
         d="m 189.04226,141.74137 a 1.5245269,1.5245269 0 0 1 -0.89678,0.86315 5.8514929,5.8514929 0 0 1 -2.17469,0.29144 v 1.55816 h 11.44516 v -1.55816 a 5.9187515,5.9187515 0 0 1 -2.24195,-0.30267 1.5581562,1.5581562 0 0 1 -0.93041,-0.88557 4.60721,4.60721 0 0 1 -0.20176,-1.50211 v -14.3597 a 2.9145367,2.9145367 0 0 1 0.61654,-2.08501 4.1027709,4.1027709 0 0 1 2.72397,-0.61654 v -1.54694 h -8.13828 l -7.60022,16.13083 -7.589,-16.13083 h -8.35127 v 1.54694 a 5.7506051,5.7506051 0 0 1 2.298,0.32509 1.4012195,1.4012195 0 0 1 0.82952,0.97525 10.088781,10.088781 0 0 1 0.15693,2.08501 v 12.94727 a 14.74083,14.74083 0 0 1 -0.0673,1.63663 1.9617074,1.9617074 0 0 1 -0.36991,0.97524 1.8159805,1.8159805 0 0 1 -0.96404,0.60533 6.7258539,6.7258539 0 0 1 -1.87203,0.20175 v 1.54695 h 8.44095 v -1.54695 a 7.3311808,7.3311808 0 0 1 -1.87203,-0.19056 1.8608196,1.8608196 0 0 1 -0.98646,-0.60533 1.9729171,1.9729171 0 0 1 -0.38114,-0.97525 13.003317,13.003317 0 0 1 -0.0785,-1.64783 v -13.60865 l 8.74361,18.57457 h 1.03129 l 8.63152,-18.57457 v 14.32607 a 4.4839025,4.4839025 0 0 1 -0.20176,1.54694 z"
         id="path858"
         style="stroke-width:1.12097" />
      <path
         class="cls-1"
         d="m 10.91923,152.35701 a 3.3629269,3.3629269 0 0 1 0.795893,0.0785 0.73984393,0.73984393 0 0 1 0.414761,0.24662 0.87436101,0.87436101 0 0 1 0.156938,0.39233 6.0644782,6.0644782 0 0 1 0,0.68379 v 3.36293 a 10.817415,10.817415 0 0 1 -0.05605,1.12097 3.452605,3.452605 0 0 1 -0.257823,0.9192 1.9953367,1.9953367 0 0 1 -0.874361,0.93041 2.7127611,2.7127611 0 0 1 -1.3563808,0.35873 2.4325172,2.4325172 0 0 1 -1.244283,-0.33632 1.8720293,1.8720293 0 0 1 -0.8071025,-0.89678 3.5198635,3.5198635 0 0 1 -0.1793546,-0.79589 8.2055418,8.2055418 0 0 1 -0.056048,-1.05372 v -3.92341 a 1.7823513,1.7823513 0 0 1 0.089679,-0.63896 0.65016587,0.65016587 0 0 1 0.3923408,-0.3475 2.533405,2.533405 0 0 1 0.9079903,-0.12328 v -0.63896 H 4.1036981 v 0.63896 a 1.659044,1.659044 0 0 1 1.1209759,0.25781 1.244283,1.244283 0 0 1 0.2354071,0.86315 v 3.92341 c 0,0.33627 0,0.60533 0,0.80711 a 3.2284099,3.2284099 0 0 0 0.1120961,0.66137 3.5983318,3.5983318 0 0 0 0.2578237,0.69501 2.4997757,2.4997757 0 0 0 0.8967802,1.02008 4.0130928,4.0130928 0 0 0 1.2667027,0.56049 5.4143124,5.4143124 0 0 0 1.3339612,0.17934 5.111649,5.111649 0 0 0 1.82719,-0.35872 2.7800196,2.7800196 0 0 0 1.479688,-1.31155 2.6567123,2.6567123 0 0 0 0.347503,-0.97524 12.39799,12.39799 0 0 0 0.06726,-1.44607 v -3.47502 a 4.1700294,4.1700294 0 0 1 0.06726,-0.82952 0.6165366,0.6165366 0 0 1 0.336293,-0.41478 2.0289659,2.0289659 0 0 1 0.90799,-0.14574 v -0.63888 h -3.475025 z"
         id="path860"
         style="stroke-width:1.12097" />
      <path
         class="cls-1"
         d="m 33.080919,151.72926 v 0.63896 a 2.0625952,2.0625952 0 0 1 0.919199,0.15693 0.68379514,0.68379514 0 0 1 0.358714,0.43717 3.6207513,3.6207513 0 0 1 0.06726,0.80711 v 4.25971 l -5.369475,-6.33351 h -2.735181 v 0.63896 a 2.0177561,2.0177561 0 0 1 0.739844,0.19057 0.86315123,0.86315123 0 0 1 0.381131,0.35873 1.4124293,1.4124293 0 0 1 0.145727,0.50443 c 0,0.19057 0,0.49323 0,0.87436 v 4.88746 a 4.0467221,4.0467221 0 0 1 -0.06726,0.86315 0.63895613,0.63895613 0 0 1 -0.347504,0.41478 2.1298537,2.1298537 0 0 1 -0.90799,0.14574 v 0.63896 h 3.508654 v -0.63896 A 2.3876781,2.3876781 0 0 1 28.81,160.42807 a 0.62774634,0.62774634 0 0 1 -0.369924,-0.41478 3.6543806,3.6543806 0 0 1 -0.06726,-0.86315 v -5.19012 l 6.165366,7.33118 h 0.63896 v -7.47692 a 3.8897855,3.8897855 0 0 1 0.06726,-0.86315 0.62774634,0.62774634 0 0 1 0.358714,-0.40355 2.4100976,2.4100976 0 0 1 0.964039,-0.13452 v -0.62775 z"
         id="path862"
         style="stroke-width:1.12097" />
      <path
         class="cls-1"
         d="m 48.483123,152.36822 a 1.7263025,1.7263025 0 0 1 1.120978,0.2578 1.1209756,1.1209756 0 0 1 0.257807,0.86316 v 5.91875 a 1.8384001,1.8384001 0 0 1 -0.08969,0.65016 0.62774634,0.62774634 0 0 1 -0.403551,0.33628 2.623083,2.623083 0 0 1 -0.896782,0.12329 v 0.63895 h 4.797777 v -0.63895 a 2.3876781,2.3876781 0 0 1 -0.919199,-0.13452 0.62774634,0.62774634 0 0 1 -0.381138,-0.3475 1.7263025,1.7263025 0 0 1 -0.08969,-0.63895 v -5.91876 a 1.8159805,1.8159805 0 0 1 0.08969,-0.66137 0.65016587,0.65016587 0 0 1 0.403551,-0.33627 2.6455025,2.6455025 0 0 1 0.907992,-0.12333 V 151.718 h -4.797777 z"
         id="path864"
         style="stroke-width:1.12097" />
      <path
         class="cls-1"
         d="m 72.068454,152.36822 a 3.3629269,3.3629269 0 0 1 0.941619,0.12329 c 0.201797,0.0785 0.313859,0.2578 0.313859,0.56049 a 2.7576001,2.7576001 0 0 1 -0.257807,0.84073 l -2.006545,4.69689 -2.163484,-5.04439 a 1.6029952,1.6029952 0 0 1 -0.168157,-0.67259 0.39234149,0.39234149 0 0 1 0.257807,-0.42597 4.7865659,4.7865659 0 0 1 0.941619,-0.11211 v -0.63895 h -4.786562 v 0.63895 a 2.3764684,2.3764684 0 0 1 0.829519,0.11211 0.88557076,0.88557076 0 0 1 0.448393,0.36991 8.4073174,8.4073174 0 0 1 0.459599,0.96404 l 3.2172,7.52174 h 0.650164 l 3.037845,-7.14061 c 0.190569,-0.43718 0.336272,-0.76226 0.448389,-0.96404 a 2.4100976,2.4100976 0 0 1 0.325086,-0.48202 0.94161955,0.94161955 0 0 1 0.403552,-0.25781 1.9617074,1.9617074 0 0 1 0.571695,-0.0897 v -0.62774 h -3.463813 z"
         id="path866"
         style="stroke-width:1.12097" />
      <path
         class="cls-1"
         d="m 94.723371,159.63214 a 1.7375122,1.7375122 0 0 1 -0.851944,0.61654 3.0714732,3.0714732 0 0 1 -0.907989,0.12329 h -0.762264 a 3.2956684,3.2956684 0 0 1 -0.784682,-0.0673 0.73984393,0.73984393 0 0 1 -0.392324,-0.25781 0.93040977,0.93040977 0 0 1 -0.156929,-0.42597 c 0,-0.17934 0,-0.44839 0,-0.81831 v -2.24195 h 0.96404 a 2.2419513,2.2419513 0 0 1 0.739844,0.0897 0.54927806,0.54927806 0 0 1 0.347499,0.32508 2.2419513,2.2419513 0 0 1 0.145744,0.77348 h 0.638959 V 154.6662 H 93.04195 a 2.7576001,2.7576001 0 0 1 -0.134517,0.76227 0.54927806,0.54927806 0 0 1 -0.347499,0.32508 2.3764684,2.3764684 0 0 1 -0.739844,0.0897 h -0.95283 v -3.36293 h 1.771143 a 4.8426148,4.8426148 0 0 1 1.053715,0.0897 1.1770244,1.1770244 0 0 1 0.638954,0.42597 3.1163123,3.1163123 0 0 1 0.493231,1.12098 h 0.638958 l -0.112104,-2.44373 h -7.846828 v 0.63896 a 2.5221952,2.5221952 0 0 1 0.919198,0.12329 0.62774634,0.62774634 0 0 1 0.381139,0.35872 2.0962245,2.0962245 0 0 1 0.07847,0.62775 v 5.91875 a 1.2554927,1.2554927 0 0 1 -0.246622,0.87436 1.7375122,1.7375122 0 0 1 -1.120974,0.24663 v 0.63895 h 8.396107 l 0.07846,-3.09389 h -0.638959 a 3.3629269,3.3629269 0 0 1 -0.627743,1.62541 z"
         id="path868"
         style="stroke-width:1.12097" />
      <path
         class="cls-1"
         d="m 117.79305,160.36077 a 1.8608196,1.8608196 0 0 1 -0.52686,-0.47081 10.301766,10.301766 0 0 1 -0.71743,-1.02008 c -0.50443,-0.78469 -0.87436,-1.33397 -1.12097,-1.62542 a 3.1387318,3.1387318 0 0 0 -0.86315,-0.73984 3.5086538,3.5086538 0 0 0 1.18823,-0.54928 2.0625952,2.0625952 0 0 0 0.66138,-0.79589 2.118644,2.118644 0 0 0 0.20179,-0.90799 2.2419513,2.2419513 0 0 0 -0.29144,-1.12098 2.5109854,2.5109854 0 0 0 -0.76226,-0.8071 3.2732489,3.2732489 0 0 0 -0.99767,-0.43718 6.1541564,6.1541564 0 0 0 -0.96404,-0.16816 c -0.40355,0 -0.84073,-0.0673 -1.31154,-0.0897 h -1.31154 -0.5717 l -2.17469,0.0673 v 0.66137 a 1.659044,1.659044 0 0 1 1.12097,0.25785 1.244283,1.244283 0 0 1 0.2354,0.86315 v 5.94117 a 1.1882342,1.1882342 0 0 1 -0.24663,0.86315 1.6702537,1.6702537 0 0 1 -1.12097,0.25781 v 0.63896 h 4.71931 v -0.63896 a 2.3652586,2.3652586 0 0 1 -0.89678,-0.13452 0.59411707,0.59411707 0 0 1 -0.39233,-0.35872 1.7823513,1.7823513 0 0 1 -0.0897,-0.62775 v -2.51097 h 0.33627 a 4.3381758,4.3381758 0 0 1 0.95283,0.0673 0.98645857,0.98645857 0 0 1 0.50444,0.33627 8.597883,8.597883 0 0 1 0.65017,0.97525 l 0.63895,1.05372 0.39232,0.65016 c 0.16816,0.25781 0.31386,0.49323 0.44839,0.6838 a 3.4638147,3.4638147 0 0 0 0.3475,0.44839 h 2.51098 v -0.62775 a 1.9617074,1.9617074 0 0 1 -0.54927,-0.13452 z m -4.0131,-4.57358 a 4.1027709,4.1027709 0 0 1 -1.77113,0.3475 h -0.43719 v -3.71043 h 0.43719 a 3.7664782,3.7664782 0 0 1 1.79356,0.36991 1.5469464,1.5469464 0 0 1 0.695,1.4909 c 0,0.78468 -0.23539,1.32275 -0.71743,1.5021 z"
         id="path870"
         style="stroke-width:1.12097" />
      <path
         class="cls-1"
         d="m 135.93043,156.21316 a 17.195766,17.195766 0 0 0 -1.62541,-0.85194 c -0.5717,-0.26903 -0.98646,-0.47081 -1.24428,-0.61653 a 2.1298537,2.1298537 0 0 1 -0.61654,-0.51565 1.1209756,1.1209756 0 0 1 -0.23539,-0.71743 1.1209756,1.1209756 0 0 1 0.38114,-0.85194 1.4796879,1.4796879 0 0 1 1.00887,-0.33627 q 1.7263,0 2.4101,2.15227 h 0.65017 v -2.62308 h -0.65017 a 3.9906733,3.9906733 0 0 1 -0.22421,0.81831 3.1947806,3.1947806 0 0 0 -1.0313,-0.8071 2.8024391,2.8024391 0 0 0 -1.25549,-0.29145 2.9033269,2.9033269 0 0 0 -1.51331,0.39233 2.7463903,2.7463903 0 0 0 -0.99768,1.00888 2.4997757,2.4997757 0 0 0 -0.33631,1.24428 2.3652586,2.3652586 0 0 0 0.10088,0.695 2.7800196,2.7800196 0 0 0 0.39232,0.72864 3.867366,3.867366 0 0 0 0.82952,0.79589 8.0822344,8.0822344 0 0 0 1.40122,0.80711 l 0.98646,0.47081 a 5.0892293,5.0892293 0 0 1 0.6838,0.42596 1.4796879,1.4796879 0 0 1 0.38114,0.4484 1.2106537,1.2106537 0 0 1 0.12333,0.5829 1.2554927,1.2554927 0 0 1 -0.43719,0.97525 1.6142049,1.6142049 0 0 1 -1.12097,0.38114 2.1298537,2.1298537 0 0 1 -1.36759,-0.43718 3.0042147,3.0042147 0 0 1 -0.86315,-1.05372 6.4119805,6.4119805 0 0 1 -0.48202,-1.30033 h -0.63896 v 3.22841 h 0.63896 a 4.0579318,4.0579318 0 0 1 0.28026,-0.95283 3.3629269,3.3629269 0 0 0 1.25549,0.97525 3.6992196,3.6992196 0 0 0 1.4909,0.32509 3.0602635,3.0602635 0 0 0 1.33396,-0.28026 2.8584879,2.8584879 0 0 0 0.9192,-0.76226 3.2732489,3.2732489 0 0 0 0.56049,-0.94162 2.6791318,2.6791318 0 0 0 0.19057,-0.93041 2.2419513,2.2419513 0 0 0 -0.40355,-1.32276 3.6095416,3.6095416 0 0 0 -0.97525,-0.86315 z"
         id="path872"
         style="stroke-width:1.12097" />
      <path
         class="cls-1"
         d="m 149.60633,152.36822 a 1.7375122,1.7375122 0 0 1 1.12098,0.2578 1.1882342,1.1882342 0 0 1 0.25781,0.86316 v 5.91875 a 1.793561,1.793561 0 0 1 -0.0897,0.65016 0.63895613,0.63895613 0 0 1 -0.40355,0.33628 2.6342928,2.6342928 0 0 1 -0.90799,0.12329 v 0.63895 h 4.78657 v -0.63895 a 2.3876781,2.3876781 0 0 1 -0.91921,-0.13452 0.65016587,0.65016587 0 0 1 -0.38114,-0.3475 1.8047708,1.8047708 0 0 1 -0.0897,-0.63895 v -5.91876 a 1.9729171,1.9729171 0 0 1 0.0897,-0.66137 0.65016587,0.65016587 0 0 1 0.40355,-0.33627 2.623083,2.623083 0 0 1 0.89679,-0.12333 V 151.718 h -4.78657 z"
         id="path874"
         style="stroke-width:1.12097" />
      <path
         class="cls-1"
         d="m 166.44339,154.39718 h 0.66138 a 2.4437269,2.4437269 0 0 1 0.33627,-1.30033 1.2218635,1.2218635 0 0 1 0.68379,-0.51565 4.3269662,4.3269662 0 0 1 0.97525,-0.0897 h 0.99767 v 6.894 a 1.1770244,1.1770244 0 0 1 -0.24662,0.86315 1.659044,1.659044 0 0 1 -1.12097,0.25781 v 0.63896 h 4.7193 v -0.63896 a 2.3428391,2.3428391 0 0 1 -0.89678,-0.13452 0.62774634,0.62774634 0 0 1 -0.39232,-0.3475 1.9504976,1.9504976 0 0 1 -0.0785,-0.63895 v -6.894 h 1.19945 a 2.7351806,2.7351806 0 0 1 0.77347,0.10087 1.2106537,1.2106537 0 0 1 0.63896,0.51565 2.7463903,2.7463903 0 0 1 0.38113,1.28912 h 0.71743 v -2.66792 h -9.31531 z"
         id="path876"
         style="stroke-width:1.12097" />
      <path
         class="cls-1"
         d="m 194.01939,152.42426 a 2.2419513,2.2419513 0 0 1 0.79589,0.11211 c 0.19057,0.0785 0.29145,0.25781 0.29145,0.54928 a 2.3988879,2.3988879 0 0 1 -0.44839,1.05371 l -1.40122,2.24196 -1.46848,-2.47736 a 7.4208586,7.4208586 0 0 1 -0.38114,-0.70622 0.75105368,0.75105368 0 0 1 -0.0785,-0.31385 0.32508295,0.32508295 0 0 1 0.12329,-0.29145 0.68379514,0.68379514 0 0 1 0.31386,-0.11211 h 0.52685 v -0.63895 h -4.42785 v 0.5829 a 1.4348488,1.4348488 0 0 1 0.70621,0.16816 2.0625952,2.0625952 0 0 1 0.54928,0.65016 v 0.0673 l 0.0673,0.0897 2.36526,3.94584 v 2.10743 a 1.8047708,1.8047708 0 0 1 -0.0897,0.65017 0.63895613,0.63895613 0 0 1 -0.39232,0.3475 2.623083,2.623083 0 0 1 -0.89679,0.12329 v 0.63895 h 4.74173 v -0.63895 a 2.118644,2.118644 0 0 1 -0.9192,-0.14575 0.6165366,0.6165366 0 0 1 -0.36991,-0.35872 1.7599318,1.7599318 0 0 1 -0.0897,-0.61654 v -2.24195 l 1.98413,-3.06027 c 0.32508,-0.50444 0.5829,-0.86315 0.75105,-1.12097 a 1.7263025,1.7263025 0 0 1 0.50444,-0.48202 1.6254147,1.6254147 0 0 1 0.63895,-0.17934 v 0 -0.62775 h -3.43018 z"
         id="path878"
         style="stroke-width:1.12097" />
      <path
         class="cls-1"
         d="m 165.79323,139.07345 0.10087,-0.35873 h -1.31154 l -0.0785,0.12329 a 1.9168683,1.9168683 0 0 1 -1.64784,1.02008 2.5670342,2.5670342 0 0 1 -1.44605,-0.4596 9.66281,9.66281 0 0 1 -1.90566,-2.17469 13.541386,13.541386 0 0 0 1.12097,-2.24195 7.5777953,7.5777953 0 0 1 1.51332,-2.58945 3.8897855,3.8897855 0 0 1 1.65904,-0.90799 h 0.10088 0.21298 v -1.47969 h -6.42319 v 1.41243 h 0.25781 0.12333 c 1.45726,0.16816 1.64783,0.78468 1.64783,1.30033 a 4.8762441,4.8762441 0 0 1 -0.40355,1.58058 8.967805,8.967805 0 0 1 -0.8071,1.51332 l -3.69922,-5.12286 c 2.34283,-1.26671 3.54228,-2.61188 3.54228,-4.0131 a 2.8360684,2.8360684 0 0 0 -1.31154,-2.43251 4.797776,4.797776 0 0 0 -2.78002,-0.87436 3.9458343,3.9458343 0 0 0 -2.92575,1.18823 3.8001074,3.8001074 0 0 0 -1.12098,2.70155 6.9164195,6.9164195 0 0 0 1.37881,3.71043 15.458254,15.458254 0 0 0 -3.16115,2.65671 4.6744685,4.6744685 0 0 0 -0.98646,3.00421 4.932293,4.932293 0 0 0 0.78468,2.7576 5.5152002,5.5152002 0 0 0 4.58479,2.47736 6.7258539,6.7258539 0 0 0 4.80898,-2.36526 5.7842344,5.7842344 0 0 0 4.48391,2.36526 3.7664782,3.7664782 0 0 0 2.30921,-0.73984 3.4301855,3.4301855 0 0 0 1.32275,-1.96171 z m -11.81509,-9.55072 a 5.7281855,5.7281855 0 0 1 -1.25549,-2.85848 1.793561,1.793561 0 0 1 0.44839,-1.2555 1.703883,1.703883 0 0 1 2.39889,0 2.0513854,2.0513854 0 0 1 0.47081,1.41243 c 0,0.94162 -0.69501,1.82719 -2.0626,2.70155 z m -1.5021,2.79124 c 1.18823,1.59178 2.61187,3.62075 4.22607,6.07568 a 3.867366,3.867366 0 0 1 -2.78002,1.41243 3.452605,3.452605 0 0 1 -2.58945,-1.27791 4.0467221,4.0467221 0 0 1 -1.12098,-2.73518 3.3629269,3.3629269 0 0 1 0.67259,-1.90566 5.9187515,5.9187515 0 0 1 1.603,-1.56936 z"
         id="path880"
         style="stroke-width:1.12097" />
      <path
         class="cls-1"
         d="m 205.22915,159.08286 v 0 a 0.62774634,0.62774634 0 0 0 0.49323,-0.61653 0.6165366,0.6165366 0 0 0 -0.22421,-0.52687 1.3563805,1.3563805 0 0 0 -0.78468,-0.19056 4.9659223,4.9659223 0 0 0 -0.71743,0.056 v 2.46615 h 0.40356 v -1.12098 h 0.28021 a 0.47080978,0.47080978 0 0 1 0.53807,0.43718 1.8384001,1.8384001 0 0 0 0.16816,0.63896 h 0.42597 a 2.0177561,2.0177561 0 0 1 -0.16816,-0.62775 c -0.0448,-0.26903 -0.20175,-0.44839 -0.41477,-0.51565 z m -0.53807,-0.15693 h -0.29145 v -0.89678 h 0.29145 c 0.4596,0 0.61654,0.21298 0.61654,0.43718 0,0.22421 -0.29145,0.4596 -0.62775,0.4596 z"
         id="path882"
         style="stroke-width:1.12097" />
      <path
         class="cls-1"
         d="m 204.8256,156.75123 v 0 a 2.2419513,2.2419513 0 1 0 2.24195,2.24195 2.2419513,2.2419513 0 0 0 -2.25316,-2.24195 z m 0,4.17003 a 1.9168683,1.9168683 0 0 1 0,-3.82252 v 0 a 1.9168683,1.9168683 0 0 1 0,3.82252 z"
         id="path884"
         style="stroke-width:1.12097" />
    </g>
  </g>
</svg>
