<?xml version="1.0" encoding="UTF-8" standalone="no"?>
<!-- Created with Inkscape (http://www.inkscape.org/) -->

<svg
   width="210mm"
   height="297mm"
   viewBox="0 0 210 297"
   version="1.1"
   id="svg5"
   inkscape:version="1.1 (c68e22c387, 2021-05-23)"
   sodipodi:docname="org-z.svg"
   xmlns:inkscape="http://www.inkscape.org/namespaces/inkscape"
   xmlns:sodipodi="http://sodipodi.sourceforge.net/DTD/sodipodi-0.dtd"
   xmlns="http://www.w3.org/2000/svg"
   xmlns:svg="http://www.w3.org/2000/svg">
  <sodipodi:namedview
     id="namedview7"
     pagecolor="#ffffff"
     bordercolor="#666666"
     borderopacity="1.0"
     inkscape:pageshadow="2"
     inkscape:pageopacity="0.0"
     inkscape:pagecheckerboard="0"
     inkscape:document-units="mm"
     showgrid="false"
     inkscape:zoom="0.71446409"
     inkscape:cx="392.60196"
     inkscape:cy="114.07151"
     inkscape:window-width="1920"
     inkscape:window-height="991"
     inkscape:window-x="-9"
     inkscape:window-y="-9"
     inkscape:window-maximized="1"
     inkscape:current-layer="g26" />
  <defs
     id="defs2" />
  <g
     inkscape:label="Layer 1"
     inkscape:groupmode="layer"
     id="layer1">
    <g
       id="g26"
       transform="matrix(0.26458333,0,0,0.26458333,60.536908,75.898288)">
      <path
         d="M 75.360113,-223.09026 H -219.73989 v -59 H 75.360113 Z m -22.7,4.6 -272.400003,113.4 22.7,54.500004 272.400003,-113.400004 z m 22.7,172.500004 H -219.73989 v 59 H 75.360113 Z"
         id="path9" />
      <path
         d="m -219.73989,36.109744 h 29.8 v 6.7 l -20,22.6 v 0.1 h 20 v 6.4 h -29.8 v -6.7 l 20,-22.6 v -0.1 h -20 z m 49.7,26.7 h -0.1 l -9,-26.7 h -8.6 l 13.1,36.1 c -1.1,4.7 -3.1,5.2 -6.5,5.2 h -2.4 c 0,0 0,0 0,0 v 6.499999 h 4.5 c 6.8,0 8.7,-1.5 11.6,-8.299999 l 15,-39.4 h -8.3 z m 60.7,-27.5 c -5.4,0 -8.9,2.4 -11.5,6.5 -1.8,-4.2 -5.6,-6.5 -10.6,-6.5 -4.2,0 -7.4,1.7 -9.9,5.1 h -0.1 v -4.3 h -7.7 v 35.8 h 8 v -19.2 c 0,-6.9 2.7,-11 7.5,-11 4.2,0 6.4,3 6.4,8 v 22.2 h 8 v -19.3 c 0,-6.8 2.8,-10.9 7.5,-10.9 4,0 6.5,2.5 6.5,8.9 v 21.3 h 8.000004 v -22.1 c 0.2,-9.6 -4.500004,-14.5 -12.100004,-14.5 m 171.600003,0 c -4.7,0 -8.5,2.3 -10.699999,5.5 h -0.1 v -4.7 h -7.6 v 35.8 h 8 v -19.9 c 0,-6.8 3.599999,-10.3 8.199999,-10.3 4.5,0 7.3,2.5 7.3,9 v 21.2 h 8 v -21.9 c 0,-9.8 -4.9,-14.7 -13.1,-14.7 m -95.899999,0.7 c -0.9,-0.2 -2,-0.4 -3,-0.4 -4.4,0 -7.8,1.9 -10.2,5.8 h -0.1 v -5.3 h -7.5 v 35.8 h 8 v -17.6 c 0,-7.5 3.5,-11.6 9.9,-11.6 0.9,0 1.8,0.1 2.8,0.3 v -7 m 16.7,-0.9 c 4.4,0 7.8000001,1.9 10.4000001,6 h 0.1 v -5 h 7.6 v 33.6 c 0,10.699999 -6.2,15.899999 -16.3000001,15.899999 -7.3,0 -12.1,-2.5 -14.2,-6.6 l 7.2,-2.999999 c 0.9,2.4 3.4,3.699999 7.1,3.699999 5.4000001,0 8.3000001,-2.699999 8.3000001,-10.199999 v -3.5 h -0.1 c -2.6,3.8 -5.9000001,5.6 -10.4000001,5.6 -9.1,0 -14.9,-7 -14.9,-18.2 0.2,-11.1 6,-18.3 15.2,-18.3 m 1.8,6.7 c -5.1,0 -8.5,4.4 -8.5,11.5 0,7 3.3,11.6 8.5,11.6 5.4000001,0 8.8000001,-4.5 8.8000001,-11.6 0.1,-7 -3.3,-11.5 -8.8000001,-11.5 m -44,20.4 c -1.9,6.6 -7.8,10.4 -16.4,10.4 -10.8,0 -17.7,-7.7 -17.7,-19.1 0,-10.5 6.8,-18.2 17.5,-18.2 8.1,0 14.5,5 16.4,12.4 0.7,2.2 1,4.5 1,9 h -27 c 0.1,6.6 4.5,10.1 9.8,10.1 4.2,0 7,-1.2 8.2,-4.6 z m -16.6,-20.3 c -5.1,0 -8.8,3.7 -9.5,9.2 h 18.9 c -0.5,-5.5 -4.3,-9.2 -9.4,-9.2 m 115.1,20.3 c -1.9,6.6 -7.8,10.4 -16.4,10.4 -10.8,0 -17.6999999,-7.7 -17.6999999,-19.1 0,-10.5 6.7999999,-18.2 17.4999999,-18.2 8.1,0 14.5,5 16.4,12.4 0.7,2.2 1,4.5 1,9 h -27 c 0.1,6.6 4.5,10.1 9.8,10.1 4.2,0 7,-1.2 8.2,-4.6 z m -16.6,-20.3 c -5.1,0 -8.8,3.7 -9.5,9.2 h 18.9 c -0.5,-5.5 -4.3,-9.2 -9.4,-9.2"
         id="path11" />
    </g>
  </g>
</svg>
