<?xml version="1.0" encoding="UTF-8" standalone="no"?>
<!-- Created with Inkscape (http://www.inkscape.org/) -->

<svg
   width="210mm"
   height="297mm"
   viewBox="0 0 210 297"
   version="1.1"
   id="svg5"
   inkscape:version="1.1 (c68e22c387, 2021-05-23)"
   sodipodi:docname="org-z.svg"
   xmlns:inkscape="http://www.inkscape.org/namespaces/inkscape"
   xmlns:sodipodi="http://sodipodi.sourceforge.net/DTD/sodipodi-0.dtd"
   xmlns="http://www.w3.org/2000/svg"
   xmlns:svg="http://www.w3.org/2000/svg">
  <sodipodi:namedview
     id="namedview7"
     pagecolor="#ffffff"
     bordercolor="#666666"
     borderopacity="1.0"
     inkscape:pageshadow="2"
     inkscape:pageopacity="0.0"
     inkscape:pagecheckerboard="0"
     inkscape:document-units="mm"
     showgrid="false"
     inkscape:zoom="0.71"
     inkscape:cx="562.67606"
     inkscape:cy="557.04225"
     inkscape:window-width="1920"
     inkscape:window-height="991"
     inkscape:window-x="-9"
     inkscape:window-y="-9"
     inkscape:window-maximized="1"
     inkscape:current-layer="g26" />
  <defs
     id="defs2" />
  <g
     inkscape:label="Layer 1"
     inkscape:groupmode="layer"
     id="layer1">
    <g
       id="g26"
       transform="matrix(0.26458333,0,0,0.26458333,60.536908,75.898288)">
      <path
         d="M 439.50983,5.8634871 H -107.06383 V -103.4142 H 439.50983 Z M 397.4657,14.383442 -107.06383,224.41885 -65.01971,325.3618 439.50983,115.32638 Z m 42.04413,319.498318 h -546.57366 v 109.27769 h 546.57366 z"
         id="path9"
         style="stroke-width:1.85216" />
      <path
         d="m -107.06383,485.94444 h 55.194491 v 12.4095 l -37.043282,41.85891 v 0.18522 h 37.043282 v 11.85385 h -55.194491 v -12.4095 l 37.043279,-41.85892 v -0.18521 h -37.043279 z m 92.052558,49.45279 h -0.185217 l -16.669476,-49.45279 h -15.928609 l 24.263347,66.86312 c -2.037387,8.70518 -5.741709,9.63126 -12.03907,9.63126 h -4.445199 c 0,0 0,0 0,0 v 12.03906 h 8.334738 c 12.594721,0 16.113835,-2.77824 21.48511,-15.37296 L 17.586816,486.12966 H 2.2138534 Z M 97.415092,484.4627 c -10.001686,0 -16.484261,4.4452 -21.299889,12.03907 -3.333895,-7.77908 -10.372118,-12.03907 -19.63294,-12.03907 -7.779089,0 -13.706014,3.14868 -18.336425,9.44604 h -0.185217 v -7.9643 H 23.698958 v 66.30748 h 14.817313 v -35.56156 c 0,-12.77992 5.000843,-20.3738 13.891232,-20.3738 7.779089,0 11.85385,5.5565 11.85385,14.81731 v 41.11805 h 14.817313 v -35.74677 c 0,-12.59471 5.18606,-20.18859 13.891232,-20.18859 7.408652,0 12.039062,4.63041 12.039062,16.48426 v 39.4511 h 14.81733 v -40.93283 c 0.37043,-17.78078 -8.33475,-26.85639 -22.411198,-26.85639 m 317.831378,0 c -8.70516,0 -15.74339,4.25999 -19.81815,10.18691 h -0.18522 v -8.70517 h -14.07644 v 66.30748 h 14.81731 v -36.85807 c 0,-12.59472 6.66778,-19.07729 15.18774,-19.07729 8.33474,0 13.5208,4.63041 13.5208,16.66947 v 39.26589 h 14.81732 v -40.5624 c 0,-18.15121 -9.07561,-27.22682 -24.26336,-27.22682 m -177.62254,1.29652 c -1.66694,-0.37043 -3.70433,-0.74086 -5.5565,-0.74086 -8.14951,0 -14.44687,3.51911 -18.89207,10.74255 h -0.18521 v -9.81647 h -13.89124 v 66.30748 h 14.81732 v -32.59809 c 0,-13.89123 6.48258,-21.4851 18.33643,-21.4851 1.66694,0 3.33389,0.18521 5.18606,0.55564 v -12.96515 m 30.93114,-1.66695 c 8.14952,0 14.44688,3.51911 19.2625,11.11299 h 0.18522 v -9.26082 h 14.07645 v 62.23272 c 0,19.81815 -11.48342,29.4494 -30.19028,29.4494 -13.5208,0 -22.41118,-4.63041 -26.30073,-12.22429 l 13.33558,-5.55648 c 1.66695,4.44519 6.29736,6.853 13.15037,6.853 10.00168,0 15.37296,-5.00084 15.37296,-18.89207 v -6.48257 h -0.18521 c -4.81563,7.03822 -10.92778,10.37212 -19.26251,10.37212 -16.8547,0 -27.59725,-12.96515 -27.59725,-33.7094 0.37043,-20.55901 11.11299,-33.8946 28.1529,-33.8946 m 3.33389,12.4095 c -9.44604,0 -15.74339,8.14952 -15.74339,21.2999 0,12.96514 6.11215,21.4851 15.74339,21.4851 10.00169,0 16.29905,-8.33474 16.29905,-21.4851 0.18521,-12.96516 -6.11215,-21.2999 -16.29905,-21.2999 m -81.49523,37.78416 c -3.5191,12.22427 -14.44688,19.2625 -30.37549,19.2625 -20.00337,0 -32.78331,-14.26166 -32.78331,-35.37634 0,-19.44772 12.59472,-33.70939 32.41288,-33.70939 15.00253,0 26.85638,9.26083 30.3755,22.96685 1.29651,4.07476 1.85216,8.33473 1.85216,16.66947 h -50.00844 c 0.18522,12.22428 8.33474,18.70686 18.15121,18.70686 7.77909,0 12.96515,-2.2226 15.18774,-8.51995 z M 159.4626,496.68699 c -9.44604,0 -16.29905,6.853 -17.59556,17.03991 h 35.0059 c -0.92608,-10.18691 -7.9643,-17.03991 -17.41034,-17.03991 m 213.1841,37.59894 c -3.51911,12.22427 -14.44689,19.2625 -30.37549,19.2625 -20.00338,0 -32.78331,-14.26166 -32.78331,-35.37634 0,-19.44772 12.59472,-33.70939 32.41287,-33.70939 15.00253,0 26.85638,9.26083 30.37549,22.96685 1.29652,4.07476 1.85217,8.33473 1.85217,16.66947 H 324.12 c 0.18521,12.22428 8.33474,18.70686 18.15121,18.70686 7.77909,0 12.96514,-2.2226 15.18775,-8.51995 z m -30.74593,-37.59894 c -9.44603,0 -16.29904,6.853 -17.59556,17.03991 h 35.00591 c -0.92609,-10.18691 -7.96431,-17.03991 -17.41035,-17.03991"
         id="path11"
         style="stroke-width:1.85216" />
    </g>
  </g>
</svg>
