<?xml version="1.0" encoding="UTF-8" standalone="no"?>
<!-- Created with Inkscape (http://www.inkscape.org/) -->

<svg
   width="210mm"
   height="297mm"
   viewBox="0 0 210 297"
   version="1.1"
   id="svg5"
   inkscape:version="1.1 (c68e22c387, 2021-05-23)"
   sodipodi:docname="org-z.svg"
   xmlns:inkscape="http://www.inkscape.org/namespaces/inkscape"
   xmlns:sodipodi="http://sodipodi.sourceforge.net/DTD/sodipodi-0.dtd"
   xmlns="http://www.w3.org/2000/svg"
   xmlns:svg="http://www.w3.org/2000/svg">
  <sodipodi:namedview
     id="namedview7"
     pagecolor="#ffffff"
     bordercolor="#666666"
     borderopacity="1.0"
     inkscape:pageshadow="2"
     inkscape:pageopacity="0.0"
     inkscape:pagecheckerboard="0"
     inkscape:document-units="mm"
     showgrid="false"
     inkscape:zoom="0.71"
     inkscape:cx="562.67606"
     inkscape:cy="597.88732"
     inkscape:window-width="1920"
     inkscape:window-height="991"
     inkscape:window-x="-9"
     inkscape:window-y="-9"
     inkscape:window-maximized="1"
     inkscape:current-layer="g26" />
  <defs
     id="defs2" />
  <g
     inkscape:label="Layer 1"
     inkscape:groupmode="layer"
     id="layer1">
    <g
       id="g26"
       transform="matrix(0.26458333,0,0,0.26458333,60.536908,75.898288)">
      <path
         d="M 556.98733,-40.515479 H -215.51454 V -194.9635 h 772.50187 z m -59.42322,12.04171 -713.07865,296.854319 59.42322,142.66809 713.07865,-296.85433 z m 59.42322,451.564119 h -772.50187 v 154.44802 h 772.50187 z"
         id="path9"
         style="stroke-width:2.61776" />
      <path
         d="m -215.51454,638.0087 h 78.00934 v 17.53901 l -52.35526,59.16144 v 0.26178 h 52.35526 v 16.75368 h -78.00934 V 714.1856 l 52.35526,-59.16145 v -0.26177 h -52.35526 z m 130.102823,69.89427 h -0.261777 L -109.23336,638.0087 h -22.51276 l 34.292692,94.50124 c -2.879542,12.30349 -8.115062,13.61237 -17.015462,13.61237 h -6.28263 c 0,0 0,0 0,0 v 17.01545 h 11.77993 c 17.800794,0 22.774544,-3.92664 30.366057,-21.72743 L -39.339089,638.27047 H -61.066521 Z M 73.486496,635.91448 c -14.13592,0 -23.29809,6.28264 -30.104274,17.01546 -4.711973,-10.9946 -14.659473,-17.01546 -27.748288,-17.01546 -10.9946041,0 -19.3714456,4.4502 -25.915853,13.3506 h -0.261777 V 638.0087 h -20.156775 v 93.71591 h 20.9421042 v -50.26105 c 0,-18.06256 7.0679604,-28.79539 19.6332228,-28.79539 10.994604,0 16.753683,7.85329 16.753683,20.9421 v 58.11434 h 20.942104 v -50.52283 c 0,-17.80078 7.329736,-28.53361 19.633222,-28.53361 10.471052,0 17.01546,6.54441 17.01546,23.29809 v 55.75835 h 20.942115 v -57.85256 c 0.52355,-25.13053 -11.779945,-37.95757 -31.674944,-37.95757 m 449.208134,0 c -12.30348,0 -22.25098,6.02086 -28.01006,14.3977 h -0.26178 V 638.0087 H 474.5278 v 93.71591 h 20.9421 v -52.09348 c 0,-17.80079 9.42394,-26.96296 21.46565,-26.96296 11.77994,0 19.10967,6.54441 19.10967,23.55986 v 55.49658 h 20.94211 V 674.3956 c 0,-25.65408 -12.82704,-38.48112 -34.2927,-38.48112 m -251.04347,1.83244 c -2.35598,-0.52355 -5.23552,-1.04711 -7.85329,-1.04711 -11.51815,0 -20.41855,4.97375 -26.70118,15.18303 h -0.26177 V 638.0087 h -19.63323 v 93.71591 h 20.94211 v -46.07263 c 0,-19.63322 9.16217,-30.36605 25.91585,-30.36605 2.35599,0 4.71197,0.26178 7.32974,0.78533 v -18.32434 m 43.71664,-2.35599 c 11.51816,0 20.41855,4.97375 27.22473,15.70658 h 0.26178 V 638.0087 h 19.895 v 87.95683 c 0,28.01006 -16.23013,41.62243 -42.66954,41.62243 -19.10967,0 -31.67493,-6.54441 -37.17223,-17.27724 l 18.84789,-7.85328 c 2.35599,6.28263 8.9004,9.68572 18.58612,9.68572 14.13592,0 21.72743,-7.06796 21.72743,-26.70118 v -9.16217 h -0.26177 c -6.80619,9.9475 -15.44481,14.65947 -27.22474,14.65947 -23.82164,0 -39.00467,-18.32434 -39.00467,-47.64329 0.52355,-29.05716 15.70658,-47.90506 39.79,-47.90506 m 4.71197,17.53901 c -13.35059,0 -22.25098,11.51816 -22.25098,30.10428 0,18.32434 8.63862,30.36605 22.25098,30.36605 14.13592,0 23.03632,-11.77993 23.03632,-30.36605 0.26177,-18.32434 -8.63862,-30.10428 -23.03632,-30.10428 m -115.18157,53.40237 c -4.97375,17.27723 -20.41855,27.22473 -42.93131,27.22473 -28.27184,0 -46.33441,-20.15677 -46.33441,-49.99927 0,-27.48651 17.80079,-47.64329 45.81086,-47.64329 21.20388,0 37.95756,13.08882 42.93131,32.46027 1.83243,5.75907 2.61776,11.77993 2.61776,23.55986 h -70.6796 c 0.26178,17.27724 11.77993,26.43941 25.65408,26.43941 10.9946,0 18.32434,-3.14132 21.46565,-12.04171 z m -43.45486,-53.14059 c -13.3506,0 -23.03632,9.68572 -24.86875,24.08342 h 49.47572 c -1.30888,-14.3977 -11.25638,-24.08342 -24.60697,-24.08342 m 301.30452,53.14059 c -4.97375,17.27723 -20.41856,27.22473 -42.93132,27.22473 -28.27184,0 -46.3344,-20.15677 -46.3344,-49.99927 0,-27.48651 17.80079,-47.64329 45.81085,-47.64329 21.20388,0 37.95756,13.08882 42.93131,32.46027 1.83244,5.75907 2.61777,11.77993 2.61777,23.55986 h -70.6796 c 0.26177,17.27724 11.77993,26.43941 25.65407,26.43941 10.99461,0 18.32434,-3.14132 21.46566,-12.04171 z m -43.45487,-53.14059 c -13.35059,0 -23.03631,9.68572 -24.86875,24.08342 h 49.47572 c -1.30888,-14.3977 -11.25638,-24.08342 -24.60697,-24.08342"
         id="path11"
         style="stroke-width:2.61776" />
    </g>
  </g>
</svg>
